<?xml version="1.0" standalone="no"?>
<!DOCTYPE svg PUBLIC "-//W3C//DTD SVG 20010904//EN"
 "http://www.w3.org/TR/2001/REC-SVG-20010904/DTD/svg10.dtd">
<svg version="1.0" xmlns="http://www.w3.org/2000/svg"
 width="1280.000000pt" height="1280.000000pt" viewBox="0 0 1280.000000 1280.000000"
 preserveAspectRatio="xMidYMid meet">
<metadata>
Created by potrace 1.14, written by Peter Selinger 2001-2017
</metadata>
<g transform="translate(0.000000,1280.000000) scale(0.100000,-0.100000)"
fill="#000000" stroke="none">
<path d="M7150 11873 c38 -44 81 -82 94 -83 4 0 -9 16 -30 35 -35 30 -36 34
-15 30 38 -7 72 -44 65 -72 -5 -17 -2 -23 10 -23 9 0 16 -5 16 -11 0 -5 -6 -7
-12 -3 -9 5 -9 2 1 -9 7 -9 10 -17 5 -17 -5 0 -1 -7 9 -14 14 -11 15 -15 3
-19 -9 -4 -18 5 -26 23 -13 30 -35 45 -45 30 -4 -6 0 -10 8 -10 7 0 19 -11 25
-25 7 -15 8 -25 2 -25 -6 0 -10 6 -10 13 0 6 -16 23 -36 36 -23 16 -31 27 -23
32 8 4 4 9 -11 14 -17 5 -19 9 -9 15 7 5 17 6 23 3 5 -3 6 -1 2 5 -4 7 -14 12
-22 12 -8 0 -27 7 -42 16 -26 15 -26 15 3 -10 17 -14 26 -26 21 -26 -5 0 -3
-7 4 -15 18 -21 3 -19 -27 5 -14 11 -30 17 -36 13 -6 -4 -3 -11 8 -20 18 -12
17 -13 -8 -13 -15 0 -27 -5 -27 -11 0 -15 30 -38 50 -39 26 -1 83 -57 76 -75
-3 -9 -2 -13 3 -10 5 3 12 1 16 -4 3 -6 -4 -8 -17 -4 -13 3 -31 6 -40 6 -9 1
-15 5 -12 8 2 4 0 10 -6 14 -5 3 -10 1 -10 -5 0 -6 -5 -8 -10 -5 -6 4 -7 11
-4 17 5 7 2 9 -7 6 -8 -3 -26 0 -40 8 l-24 13 23 1 c12 0 40 -9 62 -20 22 -11
42 -20 46 -20 11 0 -46 47 -70 58 -118 54 -156 76 -144 84 10 7 10 8 -2 6 -8
-1 -34 8 -57 20 -94 49 -50 6 55 -54 63 -35 78 -51 42 -41 -11 3 -20 1 -20 -4
0 -9 6 -11 39 -13 8 -1 15 -9 17 -19 2 -18 -11 -23 -21 -8 -3 5 -19 13 -36 16
-23 5 -28 10 -18 16 10 6 7 10 -13 18 -14 5 -29 15 -33 21 -4 6 -19 10 -33 9
-15 -2 -32 0 -38 3 -16 10 -76 12 -96 3 -11 -4 -18 -3 -18 4 0 6 -7 11 -16 11
-11 0 -7 -7 13 -23 49 -40 102 -67 121 -60 15 6 15 5 4 -10 -8 -8 -21 -13 -30
-10 -15 4 -15 3 -2 -6 8 -6 30 -11 48 -11 34 0 212 -86 212 -103 0 -5 -6 -4
-14 2 -10 8 -16 9 -21 2 -4 -7 -18 -6 -43 5 -20 9 -44 17 -52 19 -29 8 -105
37 -110 42 -3 4 3 3 13 0 11 -4 16 -3 12 4 -4 6 -13 8 -21 5 -7 -3 -16 -1 -19
4 -8 13 -25 13 -25 1 0 -5 20 -22 43 -38 37 -24 42 -31 30 -41 -7 -7 -11 -17
-8 -23 12 -19 -13 -8 -61 26 -27 19 -50 31 -52 26 -2 -5 -22 -1 -45 8 -63 25
-88 41 -81 52 4 7 -3 10 -17 8 -13 -1 -37 3 -53 10 -16 6 -32 9 -35 5 -3 -4
-1 -9 6 -11 7 -2 29 -15 48 -29 20 -13 42 -21 48 -18 7 4 9 4 5 -1 -4 -4 0
-14 10 -21 14 -11 14 -13 2 -14 -13 0 -13 -1 0 -10 8 -5 11 -10 5 -10 -5 0
-17 5 -25 10 -11 7 -11 10 -2 10 29 0 -1 19 -41 25 -61 9 -78 15 -72 25 3 4
-6 3 -19 -3 -14 -7 -24 -14 -24 -17 1 -18 -6 -19 -39 -5 -44 19 -49 15 -23
-18 20 -25 19 -25 -34 6 -29 18 -51 36 -48 41 3 5 0 6 -6 2 -7 -4 -19 -3 -29
2 -12 7 -24 5 -39 -5 -13 -8 -29 -12 -36 -8 -7 4 -2 -3 12 -14 14 -11 36 -21
48 -21 14 0 22 -5 20 -12 -7 -21 -32 -20 -54 0 -34 32 -60 42 -109 42 -31 0
-44 -4 -39 -11 4 -8 0 -9 -15 -4 -15 5 -21 2 -21 -9 0 -10 -9 -16 -23 -16 -12
0 -34 -8 -47 -17 -14 -10 -25 -16 -25 -15 0 2 -12 -1 -27 -7 -28 -11 -39 -24
-15 -19 7 2 14 -1 15 -7 1 -5 -8 -10 -20 -11 -13 -1 -66 -7 -118 -14 -52 -7
-105 -12 -118 -11 -13 0 -32 -4 -43 -9 -13 -8 -25 -7 -40 1 -12 6 -19 7 -15 1
3 -6 -18 -13 -51 -17 -39 -5 -52 -10 -42 -16 11 -7 11 -9 -3 -9 -9 0 -18 4
-20 9 -1 5 -25 -1 -53 -14 -27 -13 -42 -24 -32 -24 9 -1 17 -5 17 -11 0 -5 7
-10 16 -10 8 0 13 4 10 9 -3 4 7 6 22 3 15 -3 21 -7 12 -9 -8 -3 -24 -9 -35
-14 -19 -8 -55 -17 -82 -18 -8 -1 -13 -14 -13 -31 0 -23 6 -33 23 -39 22 -9
22 -9 -5 -16 -30 -8 -24 -20 22 -43 24 -12 24 -12 1 -6 -16 4 -21 3 -16 -6 4
-7 1 -11 -6 -9 -8 1 -25 0 -39 -1 -18 -2 -20 -4 -7 -7 9 -2 17 -9 17 -14 0 -5
17 -9 38 -10 l37 -1 -35 -8 c-19 -5 -48 -6 -64 -3 -26 5 -28 4 -21 -17 5 -14
3 -20 -3 -16 -6 3 -8 -1 -5 -12 3 -12 -3 -22 -19 -29 -22 -11 -21 -12 12 -12
24 -1 31 -4 21 -10 -11 -7 -10 -10 5 -13 14 -2 3 -11 -36 -31 -30 -15 -46 -25
-35 -22 15 4 12 -1 -10 -20 l-30 -25 28 2 c15 1 27 6 27 10 0 4 5 8 11 8 5 0
7 -5 3 -12 -5 -7 -1 -9 13 -6 12 3 27 2 34 -3 11 -7 10 -9 -4 -9 -10 0 -34
-16 -53 -35 -18 -19 -37 -35 -41 -35 -4 0 -2 5 5 12 27 27 2 36 -27 10 -11
-11 -10 -16 7 -33 12 -10 31 -19 43 -19 21 0 22 -1 4 -20 -10 -11 -22 -17 -28
-13 -6 4 -7 1 -3 -6 5 -7 15 -10 23 -7 8 3 11 1 8 -4 -4 -6 -13 -9 -20 -8 -8
2 -13 0 -12 -3 1 -4 -6 -16 -16 -27 -22 -24 -14 -80 8 -62 10 8 15 8 21 -1 4
-7 3 -9 -3 -6 -6 4 -17 -10 -26 -31 -19 -45 -30 -105 -18 -97 10 5 3 -34 -9
-50 -17 -24 -18 -54 -1 -58 14 -4 14 -5 -2 -6 -13 -1 -17 -8 -15 -30 1 -15 -6
-41 -16 -56 -10 -15 -13 -24 -7 -21 17 11 13 -5 -6 -27 -13 -15 -14 -18 -3
-12 12 7 13 6 4 -6 -17 -21 -37 -106 -29 -119 4 -6 14 -9 24 -6 12 5 11 2 -3
-9 -11 -8 -23 -15 -28 -15 -4 0 -8 -8 -8 -18 0 -10 -3 -22 -7 -26 -4 -4 -8
-24 -8 -45 -1 -31 2 -38 14 -34 14 5 14 4 0 -8 -22 -19 -32 -49 -16 -49 7 0 8
-3 2 -8 -16 -11 -23 -116 -10 -146 6 -14 5 -17 -3 -12 -9 5 -10 1 -3 -16 4
-13 6 -29 4 -35 -3 -7 1 -13 8 -13 10 0 10 -3 1 -12 -7 -7 -12 -25 -12 -41 0
-18 -4 -26 -11 -21 -8 4 -9 -3 -5 -22 4 -16 9 -47 12 -69 10 -65 11 -69 23
-98 6 -16 11 -35 11 -42 0 -16 34 -38 44 -28 3 3 6 0 6 -8 0 -8 7 -4 16 10 13
18 18 20 26 10 7 -10 8 -4 4 18 -3 21 0 35 10 44 8 6 12 14 10 17 -3 2 -1 13
5 23 6 13 6 19 0 19 -6 0 -14 -12 -17 -27 -9 -37 -14 -44 -25 -38 -5 4 -3 20
5 40 8 18 11 36 8 40 -4 4 -1 5 7 3 7 -1 16 3 19 11 3 9 0 11 -9 6 -11 -6 -12
-5 -1 6 15 16 16 33 2 24 -14 -9 -8 17 7 30 6 5 10 21 9 35 -1 14 2 34 7 45 8
17 5 16 -18 -5 -25 -23 -26 -23 -14 -3 15 25 58 49 55 30 -1 -7 -6 -19 -11
-27 -8 -13 -7 -13 9 -1 11 9 16 24 13 38 -2 12 -1 20 4 18 4 -3 10 -1 14 5 3
5 2 10 -3 10 -6 0 -13 12 -16 26 -4 15 -12 24 -19 21 -10 -4 -13 10 -13 52 1
43 5 56 16 56 8 0 15 7 15 15 0 8 6 26 14 40 l14 25 -22 -19 c-11 -11 -21 -15
-21 -9 0 12 55 65 62 58 2 -3 5 1 5 9 0 10 -8 13 -25 10 -22 -4 -24 -3 -12 10
7 9 16 14 20 11 10 -6 55 54 47 62 -3 3 -14 -8 -24 -23 -10 -16 -25 -30 -33
-32 -8 -2 -21 -10 -27 -19 -7 -9 -15 -14 -18 -11 -3 2 8 16 24 30 15 14 35 34
42 45 15 21 76 46 90 38 4 -3 13 5 20 17 9 19 9 21 -2 11 -24 -23 -31 -14 -11
15 20 28 22 32 22 56 0 7 9 16 19 19 14 3 18 1 14 -10 -5 -13 -2 -13 19 1 13
9 27 14 30 11 3 -3 16 6 29 21 13 14 32 34 41 44 12 13 13 20 5 24 -9 3 -8 5
1 5 7 1 24 13 37 29 20 23 31 27 82 29 75 2 74 1 34 18 -39 17 -44 18 -37 6 4
-5 -4 -7 -16 -3 l-22 5 24 9 c22 8 22 9 5 22 -10 7 -28 11 -39 9 -17 -4 -18
-3 -6 6 19 13 50 14 50 2 0 -6 12 -6 32 0 20 5 36 5 42 -1 6 -6 -2 -12 -24
-16 -29 -6 -31 -8 -13 -15 19 -7 113 -9 113 -3 0 2 -15 8 -32 14 l-33 10 30
-4 c17 -2 39 -6 50 -11 16 -5 17 -5 5 4 -12 8 -12 11 4 17 40 15 266 2 266
-16 0 -16 44 -19 61 -4 15 13 21 12 62 -10 30 -16 47 -20 50 -12 3 8 7 8 18 0
8 -6 37 -15 64 -18 193 -27 327 -55 345 -71 20 -18 96 -23 112 -7 14 14 32 16
23 2 -6 -9 3 -8 43 6 9 4 40 8 67 9 28 2 63 5 80 8 16 3 32 2 35 -2 3 -4 17
-11 32 -15 23 -5 27 -4 21 11 -5 14 -3 16 7 6 7 -7 25 -9 41 -6 18 3 29 1 29
-5 0 -6 18 -17 40 -23 21 -7 37 -15 35 -20 -10 -16 14 -18 111 -8 65 6 100 6
102 -1 2 -6 11 -10 21 -10 10 0 38 -7 64 -16 32 -11 44 -20 40 -30 -4 -10 0
-12 11 -8 9 3 16 13 16 21 0 11 4 13 13 5 6 -5 27 -13 44 -17 18 -3 32 -10 31
-13 -5 -15 36 -63 48 -58 8 3 14 -1 14 -10 0 -9 5 -12 12 -8 7 5 9 2 6 -7 -3
-8 3 -26 14 -39 l19 -24 -7 30 c-11 48 -24 65 -59 80 -47 19 -57 38 -17 32 22
-3 29 -1 25 9 -3 7 -9 13 -15 13 -5 0 -6 5 -3 10 4 6 11 8 16 5 13 -9 11 9 -3
23 -7 7 -9 12 -6 12 13 0 68 -62 62 -71 -3 -5 -14 1 -24 13 -27 32 -24 19 8
-40 16 -29 32 -49 37 -45 4 5 6 1 3 -7 -3 -8 2 -21 9 -29 12 -11 16 -11 28 5
15 21 16 21 36 -56 6 -25 19 -61 30 -81 10 -20 16 -39 14 -41 -3 -3 1 -5 9 -5
13 0 13 5 0 35 -17 42 -17 45 -2 36 7 -4 8 -3 4 5 -4 6 -12 8 -18 5 -7 -5 -9
0 -6 13 3 13 -6 42 -23 73 -15 28 -22 47 -15 41 7 -6 15 -8 18 -5 3 3 5 -3 5
-13 -1 -10 4 -17 11 -15 8 1 11 -2 8 -6 -7 -12 32 -92 45 -92 6 0 7 5 4 11 -4
6 -8 26 -9 44 -2 19 -8 41 -16 49 -7 9 -8 16 -2 16 5 0 17 -16 26 -35 22 -45
26 -44 15 3 -5 20 -9 40 -9 43 0 4 -15 29 -33 55 -19 27 -32 56 -30 64 3 10 0
9 -7 -3 -6 -9 -8 -23 -4 -30 4 -6 -3 -3 -16 8 -15 13 -21 15 -16 5 4 -8 -4 -1
-18 15 -14 17 -26 33 -26 36 0 3 -10 11 -22 17 -13 6 -17 11 -9 11 11 1 9 5
-5 15 -10 8 -16 18 -12 22 5 4 18 -1 29 -12 22 -19 22 -19 9 5 -6 13 -7 21 -2
17 6 -3 18 -3 27 0 13 5 10 10 -14 25 -38 23 -40 33 -3 25 15 -3 22 -3 16 0
-6 2 -10 17 -8 32 2 15 1 19 -2 10 -6 -19 -29 -24 -39 -8 -3 5 0 7 9 4 13 -5
13 -2 3 20 -7 14 -19 26 -27 26 -8 1 -1 7 15 15 27 12 28 13 8 14 -27 1 -28 7
-8 27 8 9 20 12 26 8 8 -5 9 -3 4 6 -6 10 -4 12 8 7 10 -3 17 -2 17 4 0 15 43
28 58 17 7 -6 12 -7 12 -1 0 22 33 7 58 -26 37 -48 64 -91 57 -91 -3 0 -1 -8
4 -18 5 -10 6 -24 1 -31 -6 -11 -9 -9 -14 6 -4 11 -18 25 -32 31 -22 11 -24
10 -15 -6 5 -9 18 -27 30 -38 11 -12 17 -25 14 -28 -4 -3 -1 -6 5 -6 7 0 12 5
12 12 0 6 6 3 14 -8 22 -29 31 -9 13 28 -11 23 -13 37 -5 51 6 12 6 17 0 13
-11 -7 -25 21 -17 34 3 5 0 12 -6 16 -8 5 -9 3 -4 -6 5 -9 4 -11 -4 -6 -6 4
-9 11 -6 15 2 5 -2 23 -11 40 -12 25 -13 35 -4 46 14 17 5 35 -16 35 -8 0 -13
4 -9 9 3 5 1 12 -5 16 -5 3 -10 11 -10 16 0 6 5 7 10 4 6 -3 10 -1 10 4 0 18
38 12 49 -6 8 -14 11 -15 11 -3 1 8 3 23 5 33 2 13 0 15 -8 8 -9 -7 -12 -2
-14 16 0 16 2 21 7 13 5 -8 9 -9 14 -1 9 14 -1 31 -20 31 -8 0 -14 5 -14 10 0
6 5 10 10 10 18 0 11 20 -7 20 -15 1 -13 5 9 25 26 22 27 25 10 37 -21 16 -27
38 -9 38 8 0 7 4 -3 10 -13 8 -12 10 4 10 12 0 16 5 12 15 -3 9 0 15 9 15 8 0
15 5 15 11 0 6 -6 9 -14 6 -8 -3 -20 1 -26 8 -7 8 -16 12 -21 9 -5 -3 -13 6
-19 20 -5 14 -15 26 -22 26 -9 0 -8 3 2 10 8 5 11 10 5 10 -5 0 -4 4 4 9 16
10 6 31 -15 31 -10 0 -4 10 15 26 37 31 39 45 9 41 -14 -1 -22 3 -21 11 2 7
-8 12 -27 12 -30 0 -41 14 -17 23 6 3 3 6 -7 6 -20 1 -20 1 0 16 17 13 17 14
1 15 -14 0 -15 3 -5 19 7 11 14 19 17 19 4 0 17 0 31 1 20 1 22 3 9 11 -10 6
-29 4 -55 -5 -34 -12 -41 -11 -55 3 -12 12 -14 22 -7 35 8 16 7 18 -13 12 -18
-6 -21 -4 -16 9 7 18 3 20 -22 6 -15 -8 -20 -3 -30 31 -12 38 -13 40 -27 22
-15 -17 -15 -17 -11 4 4 20 2 21 -24 16 -35 -7 -40 13 -6 27 12 5 18 9 12 9
-5 1 5 10 23 21 17 11 32 28 31 37 0 11 -3 13 -6 5 -2 -6 -9 -10 -14 -6 -5 3
-9 -2 -9 -10 0 -9 -3 -15 -7 -14 -5 1 -21 -10 -37 -25 -16 -15 -31 -26 -32
-24 -2 2 2 21 8 43 6 21 12 46 12 54 1 23 -29 48 -58 48 -35 0 -37 2 -46 64
-4 29 -9 46 -10 38 -1 -8 -2 -21 -1 -28 1 -6 -10 -17 -24 -22 -35 -13 -48 -13
-43 2 5 13 -34 58 -51 58 -6 0 -11 8 -11 17 0 9 -3 13 -7 10 -3 -4 -12 1 -19
11 -10 13 -13 13 -14 3 0 -11 -5 -9 -22 5 -23 20 -17 3 10 -29 8 -9 12 -20 8
-24 -3 -4 -36 22 -71 57 -35 35 -68 61 -71 57 -4 -4 -13 -2 -20 4 -7 6 -32 13
-55 15 -34 4 -41 3 -33 -8 5 -8 2 -6 -8 4 -32 35 -40 17 -8 -19z m105 -3 c4
-6 11 -7 17 -4 7 4 8 2 4 -4 -5 -9 -13 -9 -27 -2 -10 6 -19 13 -19 15 0 9 19
5 25 -5z m59 -53 c4 4 4 0 0 -10 -6 -17 -7 -17 -20 0 -7 10 -13 25 -13 33 0 9
5 6 12 -8 7 -12 16 -19 21 -15z m141 -65 c-6 -7 -34 29 -34 43 0 6 9 -1 20
-14 11 -13 17 -26 14 -29z m-154 21 c13 -15 12 -15 -8 -4 -24 12 -29 21 -14
21 5 0 15 -7 22 -17z m56 -15 l12 -33 -19 24 c-21 24 -26 41 -12 41 4 0 13
-15 19 -32z m-572 -18 c3 -5 -1 -10 -9 -10 -8 0 -18 5 -21 10 -3 6 1 10 9 10
8 0 18 -4 21 -10z m22 -12 c-3 -8 -6 -5 -6 6 -1 11 2 17 5 13 3 -3 4 -12 1
-19z m113 -28 c0 -5 -2 -10 -4 -10 -3 0 -8 5 -11 10 -3 6 -1 10 4 10 6 0 11
-4 11 -10z m411 -77 c13 -16 12 -17 -3 -4 -17 13 -22 21 -14 21 2 0 10 -8 17
-17z m-246 -12 c2 -4 -9 -5 -26 -3 -16 2 -29 8 -29 12 0 9 48 1 55 -9z m-810
-1 c3 -5 2 -10 -4 -10 -5 0 -13 5 -16 10 -3 6 -2 10 4 10 5 0 13 -4 16 -10z
m283 -30 c13 0 21 -4 17 -9 -3 -5 3 -12 14 -16 10 -3 26 -14 36 -25 17 -19 17
-20 1 -20 -25 0 -58 19 -51 30 3 6 -1 7 -9 4 -18 -7 -69 30 -72 51 -2 13 1 13
19 0 12 -8 32 -15 45 -15z m578 2 c-4 -3 -14 2 -24 12 -16 18 -16 18 6 6 13
-6 21 -14 18 -18z m-636 -27 c19 -22 8 -25 -12 -3 -10 10 -14 18 -9 18 5 0 14
-7 21 -15z m196 -32 c-6 -6 -36 9 -36 18 0 5 9 4 20 -3 10 -7 18 -14 16 -15z
m219 -109 c33 -35 60 -54 80 -56 l30 -4 -28 -12 c-30 -13 -72 -1 -112 33 -12
10 -5 8 18 -5 52 -31 45 -12 -14 33 -27 20 -49 42 -49 48 0 7 6 7 18 -2 15
-13 16 -12 4 3 -8 9 -20 14 -28 11 -10 -3 -12 0 -9 10 4 8 -4 22 -17 33 -13
11 -28 26 -33 34 -11 19 76 -59 140 -126z m336 109 l24 -28 -30 25 c-16 14
-32 26 -34 28 -2 1 0 2 6 2 5 0 20 -12 34 -27z m-1129 4 c41 -15 59 -27 37
-26 -17 1 -98 37 -84 38 6 0 27 -5 47 -12z m-86 -13 c23 -13 25 -15 7 -11 -13
3 -23 3 -23 1 0 -11 45 -21 52 -11 4 6 23 4 55 -7 26 -10 63 -20 81 -23 17 -3
32 -9 32 -14 0 -4 16 -7 36 -5 41 3 57 -11 17 -16 l-28 -3 34 -21 c20 -13 29
-24 22 -28 -6 -4 -11 -3 -11 2 0 5 -6 9 -12 9 -7 0 -22 4 -33 9 -14 5 -11 -1
10 -20 33 -30 29 -30 -27 -1 -36 18 -54 41 -23 29 20 -8 19 10 -1 26 -13 11
-16 10 -21 -8 -6 -23 -18 -28 -28 -12 -3 6 -21 10 -39 10 -19 0 -39 7 -46 15
-11 13 -10 14 4 9 13 -5 15 -2 9 12 -6 17 -5 18 13 4 18 -14 18 -14 5 2 -7 10
-18 15 -25 11 -6 -4 -15 -8 -21 -8 -5 -1 -9 -6 -7 -13 1 -7 -7 -12 -18 -12
-11 0 -20 5 -20 10 0 6 7 10 15 10 8 0 15 5 15 11 0 6 -7 9 -15 6 -8 -4 -17
-1 -21 5 -4 6 -9 6 -13 1 -4 -6 -18 -4 -36 4 l-30 13 34 -6 c23 -4 31 -3 27 5
-4 6 -1 11 6 11 9 0 9 3 -2 10 -24 16 -5 11 26 -6z m369 -14 c3 -6 -1 -7 -9
-4 -18 7 -21 14 -7 14 6 0 13 -4 16 -10z m285 -14 c0 -2 -37 0 -48 3 -2 1 0 6
3 11 5 9 45 -3 45 -14z m-70 -52 c0 -2 -9 0 -20 6 -11 6 -20 13 -20 16 0 2 9
0 20 -6 11 -6 20 -13 20 -16z m-986 7 c3 -5 -8 -14 -24 -20 -18 -6 -30 -6 -30
0 0 5 9 9 20 9 11 0 20 5 20 10 0 12 7 13 14 1z m1160 -12 c-6 -11 -24 -2 -24
11 0 5 7 7 15 4 8 -4 12 -10 9 -15z m-1104 -10 c0 -6 -4 -7 -10 -4 -5 3 -10
11 -10 16 0 6 5 7 10 4 6 -3 10 -11 10 -16z m875 3 c-3 -3 -11 0 -18 7 -9 10
-8 11 6 5 10 -3 15 -9 12 -12z m109 -4 c-3 -5 -12 -4 -20 3 -19 16 -18 18 6
12 11 -3 17 -9 14 -15z m714 -3 c-3 -3 -9 2 -12 12 -6 14 -5 15 5 6 7 -7 10
-15 7 -18z m-998 5 c0 -5 -4 -10 -10 -10 -5 0 -10 5 -10 10 0 6 5 10 10 10 6
0 10 -4 10 -10z m450 -32 c0 -6 -7 -5 -15 2 -8 7 -15 17 -15 22 0 6 7 5 15 -2
8 -7 15 -17 15 -22z m-209 -4 c6 -8 9 -14 6 -14 -13 0 -57 24 -57 31 0 11 38
-1 51 -17z m430 -4 c24 -11 41 -20 37 -20 -16 0 -24 -2 -43 -12 -20 -9 -20 -9
-1 6 11 9 16 16 10 17 -9 1 -16 2 -64 14 -20 6 -22 5 -10 -5 12 -9 12 -11 1
-8 -8 3 -17 10 -19 16 -6 19 41 14 89 -8z m-696 -30 c10 -11 16 -20 13 -20 -3
0 -13 9 -23 20 -10 11 -16 20 -13 20 3 0 13 -9 23 -20z m358 -13 c18 -12 38
-17 54 -14 19 4 40 -4 74 -27 l47 -31 -38 0 c-21 0 -37 2 -34 6 2 3 -5 14 -16
24 -14 13 -23 15 -32 7 -10 -7 -26 -1 -60 21 -27 18 -48 35 -48 40 0 9 10 4
53 -26z m52 3 c3 -5 1 -10 -4 -10 -6 0 -11 5 -11 10 0 6 2 10 4 10 3 0 8 -4
11 -10z m-1212 -7 c-7 -2 -19 -2 -25 0 -7 3 -2 5 12 5 14 0 19 -2 13 -5z
m1702 -66 c20 -19 20 -19 -15 -12 -39 8 -73 24 -52 25 16 0 16 20 -1 20 -8 0
-22 10 -33 22 -17 18 -13 18 31 -7 28 -15 59 -37 70 -48z m-1599 24 c10 8 14
8 14 0 0 -6 -5 -11 -11 -11 -5 0 -7 -6 -3 -12 5 -9 2 -9 -9 1 -9 7 -17 19 -16
25 0 6 3 6 6 -2 4 -10 8 -10 19 -1z m109 -12 c11 -11 48 -12 42 -1 -3 4 16 5
41 3 36 -2 42 -5 28 -13 -9 -5 -24 -7 -31 -4 -8 3 -17 1 -20 -4 -8 -13 58 -13
71 -1 12 13 56 17 72 8 17 -11 15 -27 -3 -27 -8 0 -15 -6 -16 -12 0 -10 -2
-10 -6 0 -2 6 -14 12 -24 12 -11 0 -18 -4 -15 -8 3 -4 -22 -8 -55 -7 -33 0
-62 -2 -64 -5 -6 -10 8 -11 129 -15 60 -3 111 -7 114 -10 3 -3 -3 -5 -14 -5
-10 0 -32 -9 -49 -20 -36 -24 -65 -26 -65 -5 0 8 -8 15 -17 15 -13 0 -14 -3
-5 -8 8 -6 1 -13 -23 -25 -20 -10 -35 -24 -35 -34 0 -15 -2 -16 -10 -3 -6 9
-10 11 -10 3 0 -7 -7 -10 -15 -7 -10 4 -15 0 -15 -15 0 -23 28 -40 39 -24 3 6
13 8 22 4 14 -5 15 -8 3 -19 -8 -7 -14 -9 -14 -5 0 5 -20 7 -45 5 -46 -4 -50
-1 -46 39 1 13 -11 16 -66 18 -84 2 -104 16 -25 17 32 0 67 6 78 12 15 10 3
11 -57 6 -52 -5 -78 -3 -83 5 -9 13 8 15 124 16 69 0 85 3 85 15 0 11 -9 14
-32 12 -18 -2 -34 2 -39 10 -4 7 -4 10 1 6 12 -11 45 10 45 29 0 10 -6 14 -19
10 -10 -2 -25 -1 -32 4 -10 6 -6 9 13 9 15 0 30 5 34 11 3 6 -1 10 -12 9 -38
-4 -64 0 -64 11 0 13 69 3 85 -12z m292 5 c2 -7 -9 -9 -29 -6 -28 4 -30 6 -13
13 24 9 37 7 42 -7z m693 -12 c25 -8 53 -19 62 -23 10 -5 27 -9 37 -9 11 0 22
-4 25 -9 3 -4 16 -6 29 -4 14 3 32 -4 47 -17 25 -21 25 -21 3 -15 -17 5 -23 2
-23 -9 0 -9 6 -16 13 -16 7 0 23 -9 35 -20 12 -11 27 -20 34 -21 9 0 9 -2 1
-5 -6 -3 -48 13 -92 35 -83 42 -119 53 -85 25 10 -8 13 -13 6 -9 -10 5 -65 11
-152 16 -8 0 -30 5 -49 11 -24 7 -30 13 -20 19 8 4 25 5 38 2 17 -4 22 -2 17
6 -4 6 -20 11 -37 11 -27 0 -28 2 -17 20 10 16 20 19 48 14 34 -6 34 -6 15 11
l-20 17 20 -8 c11 -4 40 -14 65 -22z m540 -32 c0 -5 -5 -10 -11 -10 -5 0 -7 5
-4 10 3 6 8 10 11 10 2 0 4 -4 4 -10z m-974 -40 c5 -5 23 -11 39 -12 17 -1 35
-4 40 -7 6 -3 22 -6 36 -7 15 -1 42 -10 60 -22 32 -19 57 -26 87 -23 7 0 -2
15 -20 33 -23 23 -28 33 -18 36 8 3 16 0 18 -7 2 -6 8 -9 13 -6 4 3 23 -2 40
-11 17 -8 48 -18 68 -20 20 -3 40 -9 45 -14 6 -6 18 -10 28 -10 10 0 18 -4 18
-10 0 -5 14 -10 30 -10 23 0 46 -14 94 -57 57 -51 84 -83 71 -83 -2 0 -16 11
-30 25 -15 13 -48 32 -73 41 -26 9 -67 25 -91 36 -24 11 -52 18 -61 15 -9 -2
-25 0 -34 5 -19 11 -106 0 -106 -13 0 -5 13 -12 30 -15 16 -4 35 -13 42 -22
11 -13 9 -14 -17 -8 -16 4 -70 10 -120 12 -75 3 -85 2 -60 -8 17 -6 39 -18 50
-26 19 -13 18 -14 -13 -8 -18 3 -31 2 -28 -3 3 -4 -14 -4 -37 1 -131 27 -204
18 -94 -12 68 -18 51 -24 -19 -7 -82 21 -204 31 -204 18 0 -6 16 -11 36 -11
30 0 64 -17 64 -33 0 -9 -55 6 -62 17 -5 7 -8 5 -8 -5 0 -14 -6 -16 -37 -9
-20 5 -41 6 -46 3 -6 -3 -7 -2 -4 4 5 9 -12 16 -92 39 -34 10 2 14 55 5 42 -6
61 -6 66 3 5 7 8 3 8 -9 1 -18 1 -19 11 -2 5 9 17 17 25 17 8 0 12 4 9 10 -3
6 1 7 10 4 8 -4 22 -1 30 6 8 7 22 10 30 6 8 -3 15 -1 15 4 0 6 9 10 20 10 11
0 20 4 20 9 0 9 112 6 146 -4 12 -4 25 -2 28 4 4 6 0 11 -11 11 -10 0 -29 9
-43 20 l-25 20 27 0 c15 0 29 4 32 9 4 5 21 7 39 4 25 -4 30 -2 20 8 -7 7 -20
13 -30 14 -74 8 -198 53 -147 55 11 0 24 -4 30 -10z m-226 -10 c8 -5 11 -10 5
-10 -5 0 -17 5 -25 10 -8 5 -10 10 -5 10 6 0 17 -5 25 -10z m364 2 c3 -5 -1
-9 -9 -9 -8 0 -15 4 -15 9 0 4 4 8 9 8 6 0 12 -4 15 -8z m-893 -17 c9 6 11 4
6 -8 -3 -9 -1 -19 4 -23 7 -4 7 -10 0 -17 -14 -14 -89 -18 -97 -6 -3 5 0 9 6
9 6 0 8 5 4 11 -3 6 -15 9 -25 6 -11 -3 -19 -1 -19 4 0 10 11 12 53 9 17 -1
29 4 33 15 5 12 9 13 14 5 5 -7 13 -9 21 -5z m444 -15 c3 -5 -3 -10 -14 -10
-12 0 -21 5 -21 10 0 6 6 10 14 10 8 0 18 -4 21 -10z m-132 -37 c-7 -2 -19 -2
-25 0 -7 3 -2 5 12 5 14 0 19 -2 13 -5z m80 -4 c-8 -8 -16 -8 -30 0 -16 9 -14
10 12 11 21 0 26 -3 18 -11z m224 -1 c0 -8 -14 -13 -34 -14 -43 -1 -43 13 0
19 17 2 32 5 33 5 0 1 1 -4 1 -10z m-600 -44 c-3 -3 -12 -4 -19 -1 -8 3 -5 6
6 6 11 1 17 -2 13 -5z m100 0 c-3 -3 -12 -4 -19 -1 -8 3 -5 6 6 6 11 1 17 -2
13 -5z m63 -69 c-19 -7 -50 -14 -67 -14 -18 -1 -33 -5 -33 -10 0 -5 -10 -13
-22 -17 -13 -4 -25 -10 -28 -14 -7 -11 -120 -21 -120 -11 0 5 15 12 33 17 l32
8 -33 3 c-28 4 -30 6 -18 19 8 7 20 12 28 9 7 -2 40 2 73 9 33 7 89 14 125 14
65 0 65 0 30 -13z m146 -22 c-7 -7 -26 7 -26 19 0 6 6 6 15 -2 9 -7 13 -15 11
-17z m-501 2 c-30 -14 -73 -20 -62 -9 6 6 64 22 82 22 6 0 -3 -6 -20 -13z
m430 -105 c-11 -5 -31 -9 -45 -9 -20 -1 -22 1 -10 9 8 5 29 9 45 9 26 0 27 -2
10 -9z m-102 -17 c-7 -2 -19 -2 -25 0 -7 3 -2 5 12 5 14 0 19 -2 13 -5z m2311
-88 c3 -8 1 -15 -3 -15 -5 0 -11 7 -15 15 -3 8 -1 15 3 15 5 0 11 -7 15 -15z
m-9 -105 c3 -5 2 -10 -4 -10 -5 0 -13 5 -16 10 -3 6 -2 10 4 10 5 0 13 -4 16
-10z m-2790 -10 c-3 -5 -12 -10 -18 -10 -7 0 -6 4 3 10 19 12 23 12 15 0z
m2606 -364 c5 3 7 -10 5 -30 -4 -24 1 -42 13 -58 l18 -22 7 22 c7 21 26 22 26
1 0 -6 -4 -8 -9 -5 -5 3 -14 -8 -20 -24 -5 -17 -12 -30 -14 -30 -2 0 -17 18
-33 41 -26 38 -27 42 -11 53 15 12 15 14 0 37 -10 13 -23 30 -30 37 -7 7 -13
19 -13 25 0 7 12 -3 26 -21 14 -18 30 -30 35 -26z m96 -62 c-3 -4 1 -13 9 -21
8 -8 11 -19 8 -25 -3 -5 -12 1 -19 14 -11 22 -11 38 2 38 4 0 4 -3 0 -6z
m-2607 -43 c0 -5 -12 -16 -26 -26 -25 -16 -25 -16 -15 3 9 17 19 25 39 31 1 1
2 -3 2 -8z m-160 -105 c0 -2 -8 -10 -17 -17 -16 -13 -17 -12 -4 4 13 16 21 21
21 13z m50 -70 c0 -2 -8 -10 -17 -17 -16 -13 -17 -12 -4 4 13 16 21 21 21 13z
m-36 -87 c-9 -10 -24 -19 -32 -19 -9 0 -12 -6 -8 -17 5 -15 4 -15 -9 1 -15 20
-15 20 -16 0 0 -12 -3 -14 -6 -6 -3 8 12 31 33 53 32 33 40 37 47 23 6 -10 3
-22 -9 -35z m-84 -9 c0 -5 -5 -10 -11 -10 -5 0 -7 5 -4 10 3 6 8 10 11 10 2 0
4 -4 4 -10z m74 -136 c7 -18 0 -34 -16 -34 -7 0 -7 4 1 13 8 10 7 17 -1 25 -8
8 -9 12 -1 12 6 0 14 -7 17 -16z m-50 -20 c3 -8 2 -12 -4 -9 -6 3 -10 10 -10
16 0 14 7 11 14 -7z m-17 -336 c-3 -8 -6 -5 -6 6 -1 11 2 17 5 13 3 -3 4 -12
1 -19z"/>
<path d="M5162 9948 c-7 -7 -12 -16 -12 -20 0 -15 15 -8 28 12 13 22 3 27 -16
8z"/>
<path d="M5780 11710 c0 -13 30 -13 50 0 11 7 7 10 -17 10 -18 0 -33 -4 -33
-10z"/>
<path d="M6496 11708 c3 -4 9 -8 15 -8 5 0 9 4 9 8 0 5 -7 9 -15 9 -8 0 -12
-4 -9 -9z"/>
<path d="M6646 11711 c-4 -6 -2 -11 3 -11 6 0 11 -6 11 -12 0 -7 11 -13 24
-13 19 0 21 3 13 17 -6 9 -15 14 -20 11 -5 -3 -13 0 -17 7 -5 9 -9 9 -14 1z"/>
<path d="M6536 11701 c-3 -5 3 -11 15 -14 16 -4 18 -3 8 9 -13 16 -16 17 -23
5z"/>
<path d="M6718 11688 c5 -5 16 -8 23 -6 8 3 3 7 -10 11 -17 4 -21 3 -13 -5z"/>
<path d="M6370 11670 c8 -5 20 -10 25 -10 6 0 3 5 -5 10 -8 5 -19 10 -25 10
-5 0 -3 -5 5 -10z"/>
<path d="M6455 11650 c28 -12 37 -12 30 0 -3 6 -16 10 -28 9 -21 0 -21 -1 -2
-9z"/>
<path d="M6340 11640 c0 -5 5 -10 11 -10 5 0 7 5 4 10 -3 6 -8 10 -11 10 -2 0
-4 -4 -4 -10z"/>
<path d="M6420 11620 c-9 -6 -10 -10 -3 -10 6 0 15 5 18 10 8 12 4 12 -15 0z"/>
<path d="M6840 11559 c7 -11 14 -18 17 -15 8 8 -5 36 -17 36 -7 0 -7 -6 0 -21z"/>
<path d="M5348 11373 c6 -2 18 -2 25 0 6 3 1 5 -13 5 -14 0 -19 -2 -12 -5z"/>
<path d="M8018 11113 c7 -3 16 -2 19 1 4 3 -2 6 -13 5 -11 0 -14 -3 -6 -6z"/>
<path d="M7880 10608 c0 -8 63 -58 74 -58 4 0 2 9 -4 19 -7 14 -7 22 0 26 6 4
9 1 8 -6 -2 -6 3 -14 10 -16 13 -5 16 15 4 33 -8 12 -92 14 -92 2z"/>
<path d="M7917 10518 c2 -5 10 -8 18 -8 8 0 18 -8 24 -17 5 -10 12 -15 16 -11
12 12 -18 46 -41 44 -12 0 -20 -4 -17 -8z"/>
<path d="M7953 10452 c0 -12 5 -22 9 -22 11 0 10 12 -2 30 -7 12 -9 10 -7 -8z"/>
<path d="M7990 10462 c0 -4 6 -14 13 -21 10 -11 9 -13 -5 -8 -12 4 -16 1 -15
-13 1 -10 5 -16 9 -14 4 3 8 1 8 -5 0 -5 3 -18 6 -28 4 -13 3 -14 -3 -5 -8 10
-13 9 -24 -4 -12 -16 -12 -17 1 -10 12 6 11 4 -1 -6 -16 -13 -15 -43 2 -32 12
7 7 -39 -6 -49 -6 -6 -6 -10 3 -14 6 -2 10 -8 7 -13 -8 -13 19 -30 34 -21 11
7 10 11 -2 22 -19 18 -9 49 17 50 19 1 19 2 -4 9 l-25 8 25 1 25 2 -24 19
c-13 11 -18 20 -11 20 12 0 11 10 -5 55 -5 16 -5 17 4 5 17 -25 21 -6 4 28
-14 29 -33 43 -33 24z"/>
<path d="M7930 10414 c10 -25 9 -26 -15 -20 -25 6 -35 -7 -15 -19 6 -4 8 -10
5 -15 -3 -5 -1 -12 5 -15 6 -4 8 -16 5 -28 -4 -15 -3 -18 3 -9 7 10 11 10 21
-2 7 -8 10 -20 6 -26 -3 -5 1 -10 9 -10 20 0 20 23 1 60 -12 23 -13 30 -3 30
9 0 8 3 -2 10 -13 8 -12 11 5 25 11 9 15 14 8 11 -6 -4 -14 3 -18 14 -3 11
-10 20 -15 20 -6 0 -5 -11 0 -26z"/>
<path d="M8036 10375 c4 -8 10 -12 15 -9 5 3 9 0 9 -5 0 -6 -6 -11 -12 -11 -8
0 -6 -5 4 -10 12 -7 16 -23 16 -58 -1 -31 3 -46 10 -44 7 1 11 -1 11 -5 -4
-22 3 -32 17 -26 11 4 14 12 9 27 -4 11 -7 26 -7 33 -1 7 -5 10 -10 7 -12 -8
-10 30 3 43 7 7 2 19 -16 42 -28 32 -59 43 -49 16z"/>
<path d="M5385 10240 c-3 -5 -1 -10 4 -10 6 0 11 5 11 10 0 6 -2 10 -4 10 -3
0 -8 -4 -11 -10z"/>
<path d="M5406 10223 c-6 -14 -5 -15 5 -6 7 7 10 15 7 18 -3 3 -9 -2 -12 -12z"/>
<path d="M8010 10181 c0 -6 4 -13 10 -16 6 -3 7 1 4 9 -7 18 -14 21 -14 7z"/>
<path d="M8055 10160 c3 -5 8 -10 11 -10 2 0 4 5 4 10 0 6 -5 10 -11 10 -5 0
-7 -4 -4 -10z"/>
<path d="M5330 10138 c0 -6 -10 -22 -22 -35 l-21 -23 21 0 c15 0 20 5 16 15
-4 9 0 15 10 15 9 0 16 8 16 20 0 11 -4 20 -10 20 -5 0 -10 -5 -10 -12z"/>
<path d="M8041 10114 c0 -11 3 -14 6 -6 3 7 2 16 -1 19 -3 4 -6 -2 -5 -13z"/>
<path d="M7871 10110 c0 -8 6 -24 14 -34 19 -25 19 -9 0 24 -8 14 -14 19 -14
10z"/>
<path d="M8081 10049 c0 -14 2 -29 7 -33 4 -4 7 -12 7 -18 0 -6 8 -12 18 -14
23 -3 22 18 -2 33 -11 7 -21 23 -24 35 -4 21 -4 21 -6 -3z"/>
<path d="M5265 9993 c-11 -15 -24 -34 -29 -42 -9 -14 -8 -14 9 -1 10 8 16 9
11 3 -4 -7 -9 -26 -11 -43 -3 -27 -1 -29 15 -20 10 6 22 20 25 32 4 13 17 33
28 46 11 12 16 22 10 22 -6 0 -21 -12 -32 -27 -17 -23 -20 -25 -18 -8 2 11 9
30 15 43 17 30 1 27 -23 -5z"/>
<path d="M5240 10000 c0 -5 4 -10 9 -10 6 0 13 5 16 10 3 6 -1 10 -9 10 -9 0
-16 -4 -16 -10z"/>
<path d="M8097 9954 c-4 -4 -3 -12 0 -18 9 -14 11 -46 4 -46 -3 0 -11 -11 -18
-25 -6 -14 -7 -25 -2 -25 5 0 9 -7 9 -16 0 -9 5 -12 13 -8 9 5 9 4 0 -6 -6 -7
-9 -20 -7 -29 3 -9 -2 -5 -11 9 -9 14 -14 17 -11 8 3 -10 1 -18 -5 -18 -6 0
-8 -4 -5 -8 3 -5 7 -20 10 -35 3 -19 0 -27 -10 -27 -8 0 -14 -6 -14 -12 0 -10
-2 -10 -8 -1 -5 8 -11 4 -18 -12 -8 -17 -8 -32 1 -59 10 -29 10 -34 1 -27 -9
8 -12 5 -11 -11 1 -12 10 -25 21 -30 15 -7 14 -8 -8 -5 -23 4 -26 2 -18 -14
15 -28 12 -33 -7 -12 -10 10 -14 13 -9 6 4 -7 6 -20 2 -28 -3 -9 -2 -13 4 -10
6 3 10 1 10 -4 0 -6 -5 -11 -11 -11 -8 0 -8 -4 -1 -13 6 -7 8 -23 5 -36 -4
-17 -8 -19 -14 -9 -11 16 -11 7 -13 -169 -1 -73 1 -133 5 -133 10 0 8 -110 -3
-139 -12 -32 10 -181 27 -181 6 0 23 13 37 28 23 27 30 42 44 110 3 15 9 36
14 47 5 11 11 48 13 83 4 60 3 64 -23 77 -47 24 -52 37 -36 86 8 24 17 64 19
89 3 25 8 53 12 63 4 9 5 24 2 32 -4 8 -1 17 4 21 6 3 9 14 6 24 -3 11 9 29
35 50 l38 33 -22 24 c-17 18 -19 26 -10 32 16 10 15 190 -1 210 -10 12 -9 13
1 7 11 -7 13 1 9 40 -8 78 -29 119 -50 98z m43 -201 c0 -5 -4 -14 -9 -21 -6
-10 -10 -9 -14 7 -3 14 0 21 9 21 8 0 14 -3 14 -7z m-44 -181 c-4 -3 -14 2
-24 12 -16 18 -16 18 6 6 13 -6 21 -14 18 -18z"/>
<path d="M5201 9878 c-7 -13 -10 -20 -6 -16 4 3 26 1 49 -6 38 -12 42 -11 42
5 0 11 -4 15 -11 9 -5 -4 -22 -6 -38 -3 -22 4 -25 8 -16 19 6 8 7 14 3 14 -5
0 -15 -10 -23 -22z"/>
<path d="M5216 9833 c-11 -26 10 -38 31 -18 17 18 17 18 -5 13 -19 -5 -21 -4
-11 8 7 8 7 14 1 14 -5 0 -13 -8 -16 -17z"/>
<path d="M8042 9735 c-11 -12 -10 -15 3 -15 8 0 15 7 15 15 0 18 -2 18 -18 0z"/>
<path d="M4825 9600 c4 -63 10 -119 15 -123 13 -14 50 44 50 80 0 18 -11 55
-25 81 -45 87 -47 86 -40 -38z"/>
<path d="M7950 9680 c0 -8 5 -22 10 -30 9 -13 10 -13 10 0 0 8 -5 22 -10 30
-9 13 -10 13 -10 0z"/>
<path d="M5248 9663 c7 -3 16 -2 19 1 4 3 -2 6 -13 5 -11 0 -14 -3 -6 -6z"/>
<path d="M8249 9417 c-40 -43 -60 -87 -39 -87 5 0 6 -7 3 -17 -4 -11 -3 -14 5
-9 7 4 12 3 12 -3 0 -5 -5 -13 -11 -17 -8 -4 -7 -9 2 -15 10 -6 9 -12 -6 -29
-16 -18 -19 -34 -17 -88 2 -37 8 -71 13 -76 5 -6 9 -1 9 12 0 25 27 83 42 93
10 6 42 269 34 276 -2 3 -23 -16 -47 -40z"/>
<path d="M8322 9400 c0 -19 2 -27 5 -17 2 9 2 25 0 35 -3 9 -5 1 -5 -18z"/>
<path d="M5069 9370 c-3 -40 -1 -87 6 -102 4 -10 5 -23 2 -30 -3 -9 -7 -6 -12
7 -18 51 -41 85 -53 80 -8 -3 -24 -5 -37 -5 -29 0 -32 -10 -41 -136 -6 -98 -5
-102 17 -117 24 -18 39 -14 39 9 0 24 44 84 62 84 10 0 19 11 23 30 4 17 11
28 16 25 10 -7 23 40 15 54 -4 5 -2 12 4 16 18 11 11 45 -15 73 -18 19 -25 22
-26 12z"/>
<path d="M5745 9250 c-4 -6 -15 -8 -25 -5 -10 3 -21 1 -25 -5 -4 -7 -32 -8
-81 -4 -63 6 -74 5 -74 -9 0 -9 -9 -19 -20 -22 -11 -3 -20 -11 -20 -16 0 -6
-4 -7 -10 -4 -17 10 -11 -7 7 -20 14 -11 13 -13 -12 -19 -23 -6 -26 -9 -14
-17 12 -8 12 -10 -1 -19 -12 -8 -12 -10 -1 -10 8 0 20 -8 28 -17 13 -16 13
-16 8 7 -4 17 -3 21 3 12 5 -7 18 -15 28 -16 10 -2 19 -7 19 -12 1 -19 31 -54
46 -54 9 0 23 -8 30 -17 12 -15 12 -16 -3 -10 -10 3 -17 3 -15 -1 2 -7 -6 -12
-24 -12 -5 0 -8 4 -5 9 3 5 -1 12 -10 15 -12 4 -14 1 -9 -14 5 -15 0 -22 -20
-30 -15 -6 -32 -10 -39 -9 -30 4 -37 -2 -30 -23 3 -13 14 -27 23 -33 31 -19
226 -95 243 -95 10 0 43 -11 74 -25 31 -14 62 -25 68 -25 7 0 21 -7 32 -16 19
-15 19 -15 -2 -11 -12 3 -27 1 -33 -3 -7 -4 5 -7 25 -8 20 -1 46 -5 58 -8 20
-7 20 -7 -4 -14 -14 -4 -62 -5 -107 -4 -78 3 -107 -8 -65 -23 9 -4 20 -11 24
-16 8 -13 173 -57 215 -57 17 0 35 5 38 10 4 6 10 8 14 6 9 -6 167 29 209 47
18 7 29 17 25 22 -5 4 2 2 15 -4 29 -15 52 -8 52 16 0 15 2 16 10 3 6 -10 10
-11 10 -2 0 6 6 12 14 12 8 0 16 3 18 8 2 4 17 15 33 24 17 9 31 26 33 37 2
12 8 19 13 16 5 -4 9 -2 9 4 0 6 10 7 28 1 15 -5 34 -9 42 -8 56 5 80 -3 93
-29 7 -16 12 -35 10 -43 -2 -8 14 -32 36 -53 28 -27 38 -44 35 -60 -2 -12 -2
-16 2 -9 6 13 36 16 48 5 4 -4 21 -6 39 -5 19 2 63 -10 107 -28 191 -81 198
-83 314 -82 120 0 138 7 113 45 -17 27 -13 37 13 37 20 0 42 43 34 65 -4 8 -1
15 5 15 6 0 11 -8 11 -17 0 -13 3 -14 12 -5 8 8 8 15 -1 26 -13 16 -36 17 -58
3 -8 -5 -13 -3 -13 5 0 9 -3 9 -10 -2 -5 -8 -10 -10 -10 -4 0 5 7 19 15 30 8
10 15 15 14 9 -3 -23 3 -24 34 -6 18 10 43 16 57 14 13 -2 27 3 31 10 5 7 28
14 52 16 57 2 127 35 127 59 0 10 9 24 19 31 11 8 17 21 13 29 -3 10 -1 13 6
8 8 -5 10 -2 6 8 -4 10 3 19 18 27 25 11 25 11 -31 63 -31 29 -70 62 -87 74
-31 22 -89 38 -79 22 11 -17 -54 -24 -71 -7 -4 4 -17 7 -29 7 -11 0 -26 5 -32
11 -12 12 -75 15 -93 4 -6 -4 -33 -1 -61 5 -32 8 -54 9 -62 2 -6 -5 -25 -7
-40 -5 -16 2 -34 0 -40 -6 -7 -5 -28 -10 -47 -12 -19 -2 -45 -10 -58 -17 -16
-11 -38 -13 -76 -8 -35 4 -56 2 -58 -5 -2 -5 -27 -13 -56 -16 -53 -5 -53 -5
-47 20 9 35 -2 52 -21 33 -17 -18 -18 -33 -1 -39 11 -4 -42 -3 -101 1 -13 1
-34 13 -48 27 -25 25 -26 25 -31 5 -6 -23 -23 -27 -23 -5 0 8 -4 15 -10 15 -5
0 -10 -7 -10 -15 0 -9 -9 -15 -24 -15 -13 0 -26 -5 -28 -12 -3 -8 -15 -2 -34
15 -18 17 -40 27 -60 27 -39 0 -210 54 -233 73 -9 8 -34 20 -56 27 -22 7 -49
18 -60 24 -22 12 -46 17 -89 18 -20 0 -25 3 -15 9 14 9 -28 14 -76 11 -16 -2
-17 0 -5 8 14 9 7 15 -14 11 -20 -4 -66 11 -60 20 3 5 -6 9 -20 9 -14 0 -28
-5 -31 -10z m1026 -279 c-8 -5 -20 -7 -28 -4 -21 8 -15 13 15 13 20 0 23 -3
13 -9z m985 -62 c8 -14 -10 -11 -32 6 -18 13 -18 14 4 8 12 -3 25 -9 28 -14z
m-1669 -85 c29 -9 -5 -24 -56 -24 -41 0 -43 1 -26 14 11 8 23 12 27 10 5 -3 8
-1 8 5 0 6 7 8 15 6 8 -3 23 -7 32 -11z m1268 -183 c-4 -14 0 -21 12 -23 11
-3 5 -6 -14 -9 -27 -5 -33 -2 -33 13 0 10 7 18 15 18 8 0 15 5 15 10 0 6 3 10
6 10 3 0 3 -9 -1 -19z m-15 -141 c0 -5 -7 -10 -15 -10 -8 0 -15 5 -15 10 0 6
7 10 15 10 8 0 15 -4 15 -10z"/>
<path d="M8298 9177 c-10 -28 -16 -53 -14 -55 6 -5 39 86 35 97 -2 5 -12 -13
-21 -42z"/>
<path d="M5470 9065 c15 -18 7 -19 -23 -4 -21 10 -21 10 -3 -5 12 -9 28 -13
39 -10 11 4 23 1 28 -7 6 -11 11 -11 20 -2 7 7 14 20 15 28 2 12 -2 13 -18 4
-14 -8 -23 -8 -31 0 -6 6 -17 11 -25 11 -12 0 -12 -3 -2 -15z"/>
<path d="M6545 9070 c-3 -5 1 -10 10 -10 9 0 13 5 10 10 -3 6 -8 10 -10 10 -2
0 -7 -4 -10 -10z"/>
<path d="M7498 9048 c5 -5 16 -8 23 -6 8 3 3 7 -10 11 -17 4 -21 3 -13 -5z"/>
<path d="M8231 9013 c-7 -27 -14 -61 -17 -78 -3 -28 -3 -28 5 -5 25 73 39 130
32 130 -4 0 -13 -21 -20 -47z"/>
<path d="M8030 8750 c-8 -5 -12 -12 -9 -15 4 -3 12 1 19 10 14 17 11 19 -10 5z"/>
<path d="M8070 8614 c-12 -19 -20 -37 -18 -39 2 -3 15 13 27 35 28 50 21 53
-9 4z"/>
<path d="M5091 8581 c-14 -11 -33 -16 -50 -13 -39 7 -18 -8 24 -18 30 -7 40
-5 56 11 11 11 17 24 14 29 -9 14 -17 12 -44 -9z"/>
<path d="M7967 8424 c-29 -34 -82 -59 -92 -43 -14 22 -45 8 -60 -27 -19 -46
-19 -50 3 -32 9 8 37 22 63 31 40 15 130 91 118 100 -2 2 -16 -11 -32 -29z"/>
<path d="M6120 8285 c0 -11 -11 -15 -40 -15 -22 0 -40 -4 -40 -10 0 -5 -7 -7
-15 -4 -18 7 -18 4 -5 -30 9 -25 8 -26 -23 -27 -25 0 -28 -2 -13 -8 18 -7 18
-8 2 -14 -10 -4 -21 -5 -26 -2 -4 3 -11 -2 -14 -10 -6 -17 -45 -16 -199 6 -82
12 -126 6 -190 -27 -16 -8 -35 -14 -43 -14 -9 0 -13 -4 -9 -9 7 -13 -33 -19
-66 -10 -23 6 -26 4 -22 -12 5 -17 -5 -24 -29 -20 -19 3 -6 -17 15 -23 29 -7
87 -63 87 -84 1 -9 16 12 34 48 41 78 76 115 117 124 54 10 129 7 158 -8 29
-15 95 -84 103 -106 3 -11 9 -10 28 3 31 22 111 22 156 1 41 -19 66 -58 97
-150 14 -38 28 -77 32 -87 5 -12 3 -17 -5 -15 -7 2 -19 -15 -27 -38 -8 -24
-37 -65 -68 -97 -41 -42 -55 -63 -55 -85 0 -17 -6 -32 -15 -36 -8 -3 -15 -15
-15 -26 0 -17 5 -21 28 -18 22 2 35 17 72 81 97 166 166 270 191 285 34 20 70
10 117 -31 20 -19 53 -43 72 -54 50 -30 124 -177 124 -248 1 -63 -23 -167 -37
-158 -6 3 -7 1 -4 -4 8 -13 -15 -113 -25 -113 -9 0 -12 63 -8 145 1 35 8 57
23 73 l20 22 -36 0 c-39 0 -41 3 -40 68 0 12 -4 22 -8 22 -5 0 -9 -5 -9 -12 0
-13 -43 -80 -74 -116 -20 -22 -20 -22 2 -43 15 -13 21 -30 20 -50 -2 -20 4
-34 19 -44 28 -19 63 -77 63 -103 0 -11 7 -22 15 -26 21 -8 182 -256 222 -344
l35 -74 66 64 c54 51 241 247 300 313 24 27 142 209 142 219 0 5 28 43 63 85
34 42 71 87 82 100 11 14 31 36 45 50 l25 26 3 -45 c5 -55 -10 -142 -53 -325
-19 -77 -43 -183 -55 -235 -11 -52 -25 -108 -30 -125 -5 -16 -21 -69 -35 -117
-14 -49 -27 -88 -28 -89 -1 0 -51 -7 -112 -14 -60 -8 -153 -21 -205 -29 -52
-9 -110 -16 -128 -16 l-33 0 7 -47 c17 -103 -1 -223 -42 -288 -6 -11 -22 -76
-34 -144 -13 -76 -31 -144 -46 -174 -14 -27 -23 -52 -19 -55 11 -12 150 -41
167 -36 20 6 80 -25 72 -38 -3 -4 8 -8 25 -8 27 0 31 -5 50 -62 16 -45 23 -95
26 -178 2 -63 0 -104 -4 -90 -8 26 -11 2 -27 -215 -5 -60 -9 -82 -14 -65 -4
14 -10 -34 -14 -115 -4 -77 -11 -212 -16 -300 -5 -88 -8 -192 -5 -232 2 -40 5
-119 7 -175 1 -59 8 -114 15 -128 9 -17 13 -20 13 -8 0 11 7 16 20 15 18 -1
20 -8 20 -62 l0 -62 -29 5 c-17 2 -32 11 -34 21 -4 16 -32 -64 -30 -86 0 -7
-5 -13 -13 -13 -9 0 -14 -12 -14 -38 0 -35 3 -38 45 -53 41 -15 46 -15 59 0
17 20 27 119 12 125 -7 3 -6 5 2 5 8 1 12 20 12 61 0 36 4 60 11 60 5 0 8 4 5
8 -13 21 38 169 65 192 3 3 9 16 12 30 33 142 41 170 50 170 14 0 3 -310 -11
-319 -6 -4 -12 -20 -12 -36 -2 -148 -22 -399 -35 -445 -9 -30 -18 -62 -19 -70
-1 -8 -8 -26 -15 -38 -7 -13 -10 -26 -7 -29 3 -4 2 -11 -3 -17 -5 -6 -14 -76
-20 -156 -7 -80 -14 -161 -15 -180 -4 -46 -9 -63 -21 -73 -7 -6 -6 -10 2 -13
9 -4 6 -15 -8 -40 -10 -19 -19 -50 -19 -69 0 -29 -4 -35 -21 -35 -12 0 -28 8
-35 17 -13 17 -15 17 -25 0 -16 -27 -129 -19 -129 9 0 16 -37 19 -42 3 -2 -6
-29 2 -65 20 -34 17 -69 31 -77 31 -8 0 -16 10 -18 22 -2 11 -10 22 -18 24
-63 10 -80 36 -80 122 0 20 -5 72 -12 117 -11 79 -6 141 11 131 10 -7 21 27
21 66 0 37 10 59 24 52 6 -3 1 3 -10 13 -12 10 -38 48 -57 85 -28 52 -37 82
-41 135 -3 37 -11 91 -19 120 l-14 51 112 185 c61 101 121 197 132 213 85 122
106 195 85 295 -5 26 -5 54 -1 62 6 9 4 19 -5 26 -11 9 -12 7 -9 -11 5 -33
-18 -71 -46 -75 -21 -3 -22 -1 -10 13 10 13 11 18 2 21 -7 2 -9 12 -6 21 6 15
5 15 -10 3 -10 -8 -15 -16 -12 -19 2 -3 -3 -10 -11 -17 -14 -10 -14 -15 -5
-34 12 -21 11 -22 -7 -12 -15 8 -23 6 -36 -8 -10 -11 -19 -27 -20 -36 -1 -9
-8 -20 -15 -25 -8 -4 -11 -12 -7 -18 3 -6 2 -13 -3 -16 -10 -6 -88 62 -193
167 -54 54 -72 77 -48 62 6 -3 10 -1 10 5 0 6 -6 10 -13 8 -7 -2 -54 32 -103
75 -81 70 -149 140 -437 456 -107 117 -162 207 -154 255 3 19 55 116 115 217
61 101 118 201 128 222 20 41 26 44 44 22 7 -8 17 -12 23 -8 5 3 8 2 5 -3 -3
-5 19 -36 49 -69 30 -33 50 -50 44 -39 -6 12 -7 24 -4 28 3 3 2 6 -4 6 -6 0
-13 9 -16 20 -3 11 -1 20 4 20 6 0 6 6 0 17 -7 13 -4 25 12 47 11 16 16 27 10
23 -6 -4 -15 -1 -21 6 -10 11 -11 15 -13 35 0 4 -4 -3 -9 -15 -5 -12 -7 -31
-5 -43 2 -11 0 -18 -5 -15 -5 3 -12 -1 -17 -9 -7 -12 -10 -12 -22 1 -11 12
-11 14 0 11 15 -3 19 3 19 28 0 8 -4 13 -9 10 -15 -10 -50 100 -44 139 4 26 9
33 18 25 9 -7 16 -6 25 5 15 18 42 19 58 3 20 -20 37 5 21 30 -17 27 -9 34 34
34 29 0 87 33 87 49 0 3 -18 3 -40 1 -22 -2 -40 -8 -40 -13 0 -5 5 -9 11 -9 5
0 7 -5 4 -10 -4 -6 -12 -4 -21 5 -9 8 -21 15 -27 14 -9 0 -8 -2 1 -6 17 -7 15
-23 -3 -23 -8 0 -15 5 -15 10 0 6 -5 9 -11 8 -13 -3 -18 17 -20 97 -1 33 -4
54 -6 48 -3 -7 -16 -13 -29 -13 -18 0 -24 5 -24 21 0 11 -8 28 -17 37 -15 15
-15 17 -1 20 22 4 11 42 -12 42 -30 0 -43 28 -43 93 0 34 -2 55 -5 47 -6 -19
-22 -30 -44 -30 -18 0 -18 24 1 43 9 9 14 9 21 -3 7 -10 8 -4 4 20 -8 40 -50
89 -77 90 -14 0 -17 -5 -12 -22 5 -19 4 -20 -5 -8 -9 12 -13 12 -17 2 -4 -10
-9 -8 -20 7 -29 42 -63 10 -63 -59 0 -16 -4 -32 -10 -35 -5 -3 -10 3 -10 15 0
12 -4 19 -9 15 -5 -3 -13 0 -16 6 -4 5 -13 8 -21 5 -7 -3 -16 0 -20 5 -3 6
-15 9 -25 6 -11 -3 -17 -1 -14 3 8 13 -23 39 -53 46 -15 4 -38 15 -52 24 -14
9 -35 19 -46 22 -18 5 -21 2 -17 -16 3 -11 8 -30 13 -41 13 -32 30 -88 28 -91
-2 -1 -15 -5 -29 -9 -19 -5 -35 1 -65 24 -21 17 -65 51 -96 76 -37 29 -60 41
-64 33 -12 -19 -42 53 -49 118 -6 52 4 164 21 242 3 15 0 22 -10 22 -22 0 -46
40 -46 78 0 28 13 62 49 122 11 18 31 169 31 231 0 41 16 78 44 104 6 6 26 32
44 58 24 35 30 52 23 65 -5 9 -17 53 -26 97 -10 44 -20 83 -22 88 -2 4 -17 -1
-32 -12 -15 -11 -50 -25 -77 -32 -123 -30 -271 -137 -333 -241 -45 -75 -117
-121 -284 -182 -50 -19 -135 -55 -187 -79 -52 -25 -219 -87 -370 -137 -307
-101 -440 -161 -517 -233 -53 -50 -76 -94 -108 -211 -9 -33 -34 -94 -55 -135
-21 -42 -45 -99 -53 -126 -8 -28 -33 -88 -56 -135 -22 -47 -45 -106 -50 -132
-11 -61 -4 -695 9 -858 6 -69 22 -203 36 -299 26 -182 24 -201 -17 -201 -10 0
-26 -11 -34 -24 -20 -29 -41 -190 -31 -230 4 -16 32 -55 63 -87 63 -66 62 -52
12 -182 l-22 -58 26 -63 c46 -112 56 -192 56 -421 0 -248 12 -352 66 -550 13
-49 29 -133 35 -185 6 -52 18 -124 26 -159 21 -93 43 -248 54 -375 5 -69 18
-142 35 -193 14 -45 34 -116 45 -158 24 -93 79 -223 125 -291 18 -28 79 -145
135 -259 96 -197 106 -212 174 -279 60 -59 172 -137 179 -124 19 30 37 86 37
114 0 52 27 90 80 113 40 17 56 34 115 121 65 97 71 102 139 134 68 32 226 87
456 156 58 18 159 55 225 83 105 44 129 50 190 51 79 0 119 -15 233 -88 37
-24 106 -62 152 -84 47 -22 146 -69 220 -105 129 -62 328 -147 347 -147 9 0
94 -55 182 -117 65 -46 79 -66 86 -124 5 -46 30 -114 51 -139 7 -8 13 -19 14
-25 1 -5 5 -9 9 -8 4 1 7 -8 6 -20 -1 -12 1 -27 6 -33 17 -22 49 -181 49 -246
0 -148 -56 -284 -119 -289 -80 -6 -131 -6 -131 1 0 5 -21 3 -47 -5 -41 -12
-49 -12 -63 0 -9 8 -24 15 -32 15 -9 0 -18 4 -20 9 -1 5 -45 11 -97 14 -51 3
-97 10 -100 16 -4 6 -20 12 -37 14 -16 2 -45 11 -64 20 -32 15 -41 15 -117 -1
-45 -10 -85 -20 -88 -24 -4 -3 12 -9 34 -13 23 -4 44 -12 47 -17 5 -8 -16 -9
-69 -4 -64 6 -77 4 -77 -8 0 -14 -20 -26 -46 -26 -12 0 -80 -46 -104 -70 -3
-3 -28 -26 -57 -51 -42 -37 -57 -45 -85 -42 -18 1 -43 -2 -55 -7 -64 -28 -73
-34 -69 -49 9 -29 -20 -53 -67 -57 -42 -3 -46 -1 -60 28 -8 17 -14 38 -12 47
2 9 11 49 20 90 19 90 51 147 107 191 24 19 76 63 116 98 78 69 89 99 51 126
-27 18 -61 74 -54 87 4 5 14 9 24 9 9 0 26 6 36 14 19 13 18 15 -15 23 -26 7
-53 5 -105 -10 -38 -10 -82 -21 -98 -24 -15 -3 -30 -9 -33 -14 -3 -5 -14 -9
-25 -9 -10 0 -19 -4 -19 -9 0 -5 -14 -13 -31 -16 -24 -6 -28 -9 -18 -17 10 -7
8 -8 -7 -3 -12 3 -34 -1 -50 -10 -30 -15 -114 -101 -114 -116 0 -5 -3 -9 -7
-9 -11 0 -43 -58 -43 -76 0 -8 -4 -14 -10 -14 -5 0 -10 -9 -10 -20 0 -11 -4
-20 -8 -20 -4 0 -8 -9 -9 -21 -1 -11 -20 -38 -43 -60 -23 -22 -43 -49 -45 -60
-2 -10 -7 -23 -10 -29 -3 -5 -1 -19 6 -31 16 -31 -3 -17 -53 37 -22 24 -47 44
-55 44 -17 0 98 -143 139 -173 15 -11 34 -35 43 -53 14 -31 16 -32 52 -22 111
28 241 21 298 -18 34 -23 44 -24 180 -24 l145 0 0 30 c0 26 4 30 28 31 97 2
246 5 522 11 264 6 326 4 383 -9 48 -10 94 -13 150 -9 45 3 94 6 108 6 14 0
52 9 85 20 53 18 84 21 314 21 140 1 279 0 309 0 54 -2 132 -28 145 -50 14
-22 80 -10 229 39 104 35 178 53 241 60 78 8 193 21 313 34 58 7 257 46 309
61 28 8 59 15 69 15 10 0 71 18 134 39 200 68 478 130 796 177 55 8 116 19
135 25 19 6 113 12 207 14 95 2 182 9 192 15 11 5 32 10 48 10 16 0 39 7 52
16 19 14 32 15 89 5 61 -10 192 -45 315 -84 l47 -15 0 1999 c0 1722 -2 1999
-14 1999 -24 0 -78 52 -97 95 -10 22 -19 60 -19 85 0 25 -7 70 -15 100 -8 30
-15 74 -15 98 0 46 -21 105 -47 134 -9 11 -18 48 -23 100 -4 46 -14 112 -23
148 -9 36 -44 209 -77 385 -34 176 -74 365 -90 420 -16 55 -42 158 -59 229
-17 71 -47 166 -67 210 -20 45 -43 108 -51 141 -20 84 -66 164 -136 241 -95
104 -168 130 -392 144 -133 7 -148 11 -305 63 -91 31 -203 63 -250 72 -47 9
-146 29 -220 45 -74 17 -187 37 -250 45 -129 17 -122 12 -210 139 -21 31 -51
59 -74 70 -36 17 -46 18 -115 7 -77 -12 -266 -2 -336 17 -27 8 -30 13 -28 45
3 54 -4 45 -17 -20 -7 -31 -16 -64 -20 -72 -4 -9 -20 -47 -36 -86 -52 -132
-120 -245 -138 -228 -3 3 -8 -2 -12 -11 -3 -9 -10 -13 -15 -10 -5 3 -6 -2 -3
-10 5 -12 -1 -16 -23 -16 -16 0 -33 -4 -39 -10 -6 -6 -15 -6 -24 0 -13 8 -13
10 1 10 11 0 19 12 24 38 4 20 11 43 17 49 6 7 8 19 5 26 -6 16 26 91 48 114
25 25 14 48 -25 51 -19 2 -38 8 -41 14 -10 15 -89 -12 -89 -31 -1 -9 -8 0 -18
19 -18 36 -52 53 -52 25 0 -21 -17 -19 -23 3 -4 13 -5 12 -6 -5 0 -12 -5 -24
-10 -27 -4 -3 -6 6 -3 19 3 20 0 25 -17 25 -17 0 -21 6 -21 36 0 29 -3 35 -16
30 -8 -3 -12 -2 -9 4 3 6 0 10 -7 10 -7 0 -33 19 -58 41 -78 72 -101 89 -111
84 -5 -4 -7 0 -4 7 7 21 -64 68 -104 69 -20 0 -48 2 -62 3 -14 1 -26 -3 -27
-9 0 -5 -3 -29 -6 -52 -5 -41 -5 -42 27 -45 44 -4 62 -42 47 -99 -8 -29 -15
-39 -26 -35 -8 3 -17 -1 -20 -9 -3 -8 -14 -17 -24 -20 -11 -3 -22 -15 -25 -26
-4 -10 -15 -19 -25 -19 -10 0 -25 -6 -32 -12 -49 -46 -120 -75 -196 -82 l-73
-7 -67 59 c-37 33 -94 72 -126 86 -33 15 -66 35 -73 44 -35 47 -1 202 48 221
19 7 20 8 4 21 -42 35 -135 52 -135 25z m880 -345 c0 -5 -4 -10 -10 -10 -5 0
-10 5 -10 10 0 6 5 10 10 10 6 0 10 -4 10 -10z m63 -19 c11 -1 15 -6 11 -12
-3 -6 -19 -9 -35 -7 -16 3 -29 0 -30 -6 0 -6 -3 -5 -6 2 -2 6 -9 12 -14 12
-14 0 -11 -28 4 -33 10 -4 10 -7 0 -18 -11 -11 -13 -10 -13 4 0 9 -4 17 -10
17 -5 0 -7 7 -3 16 7 18 40 33 63 28 8 -1 23 -3 33 -3z m467 -18 c0 -5 -7 -17
-15 -27 -12 -16 -18 -17 -27 -8 -9 9 -8 12 4 12 9 0 18 7 22 15 6 16 16 21 16
8z m-480 -33 c0 -13 -11 -13 -30 0 -12 8 -11 10 8 10 12 0 22 -4 22 -10z m110
-12 c13 -16 15 -27 8 -35 -5 -7 -7 -16 -4 -22 12 -20 -17 -60 -48 -67 -17 -3
-34 -11 -38 -17 -4 -6 -10 -9 -13 -5 -3 3 5 18 20 32 19 19 24 32 19 50 -3 14
-2 31 2 38 9 13 10 18 13 38 2 17 22 11 41 -12z m40 8 c0 -3 -4 -8 -10 -11 -5
-3 -10 -1 -10 4 0 6 5 11 10 11 6 0 10 -2 10 -4z m-195 -46 c-3 -5 -12 -10
-18 -10 -7 0 -6 4 3 10 19 12 23 12 15 0z m71 -2 c4 -6 3 -8 -4 -4 -6 3 -13 2
-16 -3 -3 -5 1 -12 10 -15 13 -5 14 -9 4 -21 -7 -8 -9 -15 -4 -15 4 0 0 -6
-10 -13 -10 -8 -29 -12 -41 -9 -13 2 -34 -3 -47 -12 -14 -9 -27 -14 -30 -10
-10 9 4 44 18 45 8 1 19 3 24 4 6 1 15 3 20 4 6 0 10 8 10 16 0 8 4 15 9 15 6
0 8 -9 6 -20 -2 -11 0 -18 5 -15 5 3 7 17 4 31 -3 15 -1 23 5 20 5 -4 12 -2
16 4 8 13 12 13 21 -2z m124 -8 c-19 -13 -30 -13 -30 0 0 6 10 10 23 10 18 0
19 -2 7 -10z m-370 -68 c8 -2 25 -5 38 -6 32 -4 37 -13 12 -26 -24 -13 -112
-3 -90 10 9 5 9 9 1 14 -6 4 -11 17 -11 29 1 22 1 22 18 2 10 -11 24 -22 32
-23z m451 -75 c-1 -4 -1 -16 -1 -27 0 -12 -7 -20 -17 -20 -9 0 -24 -7 -34 -16
-25 -22 -43 -9 -27 19 7 12 11 25 10 30 -1 4 9 7 23 7 14 0 25 5 25 11 0 6 5
9 11 7 6 -2 10 -7 10 -11z m-201 -122 c21 -11 27 -20 23 -35 -3 -11 -9 -20
-14 -20 -5 0 -8 -3 -8 -7 1 -5 1 -16 0 -25 -1 -21 -37 -25 -43 -5 -3 6 -5 -3
-5 -22 0 -23 -7 -40 -22 -53 -31 -25 -54 -24 -46 2 5 16 2 20 -15 20 -20 0
-21 3 -15 43 9 52 23 80 38 74 7 -2 21 6 32 19 23 28 36 29 75 9z m-160 -86
c0 -10 -4 -19 -10 -19 -5 0 -10 -8 -10 -17 0 -14 -2 -15 -9 -4 -5 8 -14 10
-21 6 -9 -5 -11 -4 -6 3 4 7 14 12 22 12 8 0 14 10 14 26 0 14 4 23 10 19 6
-3 10 -15 10 -26z m156 -165 c4 -14 2 -35 -3 -47 -28 -59 -36 -83 -34 -94 2
-15 -8 -16 -29 -3 -10 6 -11 10 -2 10 6 0 12 4 12 8 0 11 -69 2 -76 -10 -4 -6
2 -8 17 -3 24 6 24 6 -1 -12 -16 -11 -24 -25 -22 -37 4 -19 -13 -36 -36 -36
-7 0 -10 4 -7 10 3 5 1 19 -5 30 -7 13 -7 20 0 20 5 0 10 7 10 15 0 8 -4 15
-10 15 -5 0 -10 -5 -10 -11 0 -6 -7 -9 -15 -5 -18 7 -20 -5 -2 -23 10 -10 9
-11 -5 -6 -10 4 -18 11 -18 17 0 5 -8 8 -17 6 -10 -2 -17 3 -15 10 1 6 -2 12
-8 12 -15 0 -12 -16 6 -34 14 -15 14 -17 0 -22 -9 -3 -14 -10 -11 -14 3 -4 -2
-11 -11 -14 -8 -3 -13 -2 -10 3 3 4 -2 17 -10 27 -9 10 -13 13 -9 7 3 -7 2
-13 -4 -13 -5 0 -13 -9 -16 -20 -3 -11 -11 -20 -16 -20 -6 0 -7 5 -4 10 3 6 0
10 -8 10 -18 0 -29 24 -21 45 4 10 0 15 -14 15 -11 0 -25 7 -32 15 -10 12 -9
15 7 15 10 0 28 7 39 15 21 16 59 20 49 6 -3 -5 -1 -12 5 -16 6 -3 13 1 16 9
4 11 19 16 44 16 30 0 37 4 36 18 -1 15 9 17 71 17 67 0 73 2 78 23 4 16 11
22 21 18 9 -3 12 -2 9 5 -12 18 4 39 29 39 19 0 27 -7 32 -26z m-393 -60 c11
-11 -16 -54 -34 -54 -24 0 -42 33 -27 48 13 13 51 16 61 6z m131 -13 c4 -5 -1
-8 -9 -7 -21 3 -31 16 -12 16 9 0 18 -4 21 -9z m200 -90 c3 -4 -6 -6 -19 -3
-14 2 -25 6 -25 8 0 8 39 4 44 -5z m-164 -31 c0 -5 -2 -10 -4 -10 -3 0 -8 5
-11 10 -3 6 -1 10 4 10 6 0 11 -4 11 -10z m-13 -26 c-3 -3 -12 -4 -19 -1 -8 3
-5 6 6 6 11 1 17 -2 13 -5z m-1247 -155 c0 -6 6 -17 14 -25 13 -12 17 -11 30
7 l15 22 4 -24 c8 -40 7 -75 -2 -61 -5 9 -15 10 -31 4 -17 -6 -29 -4 -42 7
-22 19 -23 31 -3 31 8 0 15 5 15 10 0 6 -4 10 -8 10 -4 0 -8 9 -9 20 -1 11 2
18 8 15 5 -4 9 -11 9 -16z m150 -220 c0 -5 -4 -9 -10 -9 -5 0 -10 7 -10 16 0
8 5 12 10 9 6 -3 10 -10 10 -16z m227 -121 c-3 -8 -6 -5 -6 6 -1 11 2 17 5 13
3 -3 4 -12 1 -19z m-102 -287 c-3 -5 -1 -12 5 -16 5 -3 10 -1 10 6 0 30 21
-10 25 -47 3 -35 2 -37 -10 -20 -8 10 -18 15 -24 12 -5 -4 -12 -2 -16 4 -3 5
-1 10 4 10 8 0 7 7 -1 20 -9 14 -14 16 -20 7 -6 -9 -8 -9 -8 0 0 7 8 17 18 22
22 13 25 13 17 2z m2041 -1406 c31 -8 59 -17 62 -19 10 -11 -9 -36 -45 -60
-74 -48 -119 -98 -127 -141 -7 -44 -74 -130 -83 -107 -7 18 -30 15 -42 -5 -9
-17 -11 -17 -38 3 -15 11 -36 23 -46 27 -10 4 -25 20 -35 37 -12 22 -36 38
-87 59 -38 16 -82 33 -97 36 -16 4 -28 13 -28 21 0 13 80 54 107 54 8 0 28 7
46 17 18 9 52 18 77 19 25 2 46 8 48 14 2 5 21 10 43 10 21 0 54 9 72 19 61
34 93 37 173 16z m768 -176 c26 -45 91 -148 144 -230 53 -82 114 -177 135
-212 21 -34 70 -113 109 -175 38 -63 67 -119 65 -126 -4 -11 -264 -143 -632
-322 -60 -30 -132 -66 -160 -82 -213 -118 -306 -163 -319 -153 -7 6 -68 96
-137 202 -68 105 -159 241 -202 302 -43 61 -85 123 -93 139 -8 16 -29 41 -46
56 -17 15 -37 41 -44 59 -12 29 -17 31 -47 26 -23 -3 -37 0 -46 11 -18 21 -6
36 29 36 56 0 136 36 850 388 179 89 330 161 336 161 6 1 32 -35 58 -80z
m-1657 -621 c-3 -8 -6 -5 -6 6 -1 11 2 17 5 13 3 -3 4 -12 1 -19z m42 -1012
c8 -10 7 -24 -3 -54 -8 -22 -12 -57 -10 -79 5 -36 7 -103 5 -130 -1 -8 -16
-13 -38 -13 -32 0 -41 6 -60 35 -13 19 -23 41 -23 48 0 7 -9 20 -20 30 -11 9
-20 24 -20 32 0 9 -4 13 -10 10 -5 -3 -10 -1 -10 5 0 6 -5 8 -11 4 -7 -4 -10
1 -7 11 4 23 28 32 28 12 0 -13 4 -13 25 -4 21 10 22 13 7 19 -14 5 -13 7 6 7
12 1 22 6 22 11 0 6 9 10 20 10 14 0 20 7 20 23 0 13 2 26 4 28 11 10 65 7 75
-5z m-274 -137 c9 -27 -33 -67 -66 -63 -13 1 -27 3 -31 3 -5 1 -8 19 -8 41 l0
40 49 0 c41 0 51 -3 56 -21z m-800 -583 c18 -8 36 -11 40 -8 3 4 3 -1 0 -9 -7
-17 -74 -25 -188 -22 -37 2 -66 -1 -63 -5 8 -14 -52 -33 -91 -29 -35 3 -35 4
10 5 33 2 47 6 47 16 0 8 15 19 33 24 42 13 141 37 170 41 4 0 23 -5 42 -13z
m1286 -259 c19 -12 58 -54 87 -92 101 -134 303 -502 317 -577 4 -21 11 -38 15
-38 14 0 9 -78 -6 -90 -8 -8 -12 -21 -8 -36 8 -32 -5 -114 -17 -114 -6 0 -26
16 -45 36 l-35 36 -23 -24 c-12 -13 -25 -30 -29 -39 -3 -10 -24 -25 -47 -35
-22 -10 -39 -23 -36 -29 3 -8 -5 -10 -20 -7 -13 2 -24 0 -24 -5 0 -5 -6 -10
-12 -11 -34 -3 -92 -22 -98 -33 -5 -6 -17 -9 -29 -6 -12 3 -24 1 -27 -4 -3 -5
-9 -9 -14 -9 -5 0 10 20 34 44 31 33 79 62 180 111 l136 65 -49 74 c-47 69
-51 81 -70 192 -32 188 -122 394 -235 538 -22 28 -61 28 -91 0 -32 -29 -41
-30 -55 -4 -10 18 -7 22 17 31 15 5 46 18 68 29 53 25 76 24 116 -3z m-808
-94 c24 -4 37 -11 37 -21 0 -12 -9 -14 -43 -9 -57 8 -97 24 -97 38 0 8 11 9
33 4 17 -3 49 -9 70 -12z m217 -50 c14 -9 34 -27 45 -40 11 -13 28 -23 38 -23
9 0 17 -6 18 -12 0 -7 4 -5 7 5 7 17 9 16 30 -3 22 -21 31 -47 12 -35 -5 3
-10 -3 -10 -14 0 -26 17 -37 22 -14 2 13 8 7 21 -19 10 -20 22 -40 27 -43 15
-9 12 -65 -4 -71 -8 -3 -14 -20 -14 -40 0 -20 -3 -38 -6 -41 -3 -4 -6 3 -6 15
0 34 -11 53 -38 63 -16 6 -29 6 -38 -2 -22 -18 -45 -4 -35 23 8 22 -3 55 -24
70 -16 12 4 9 28 -4 12 -6 27 -18 34 -27 25 -34 21 -2 -7 57 -34 72 -105 147
-152 161 l-33 9 30 1 c17 1 42 -7 55 -16z m-340 -28 c-7 -9 -15 -13 -17 -11
-7 7 7 26 19 26 6 0 6 -6 -2 -15z m182 -36 c9 -5 30 -9 47 -9 17 0 31 -4 31
-10 0 -5 -10 -10 -22 -10 -38 0 -11 -12 43 -19 51 -6 83 -31 39 -31 -34 0 -23
-44 11 -48 18 -2 29 -11 33 -25 8 -29 7 -42 -1 -34 -3 4 -12 2 -19 -4 -7 -6
-19 -7 -26 -3 -7 5 -22 8 -33 9 -15 0 -20 7 -20 27 0 14 -3 30 -8 34 -4 4 1
16 10 27 17 19 17 20 1 14 -26 -9 -47 2 -64 34 -12 24 -21 29 -52 29 -36 0
-62 14 -62 32 0 9 68 0 92 -13z m645 -105 c24 -4 40 -11 37 -16 -4 -5 -22 -7
-40 -3 -21 3 -34 2 -34 -5 0 -5 -5 -10 -11 -10 -6 0 -9 7 -5 15 3 9 0 15 -9
15 -7 0 -17 5 -21 12 -5 8 0 9 17 4 13 -3 43 -9 66 -12z m73 -24 c0 -5 -5 -10
-11 -10 -5 0 -7 5 -4 10 3 6 8 10 11 10 2 0 4 -4 4 -10z m-113 -95 c8 -23 -2
-28 -42 -21 -37 7 -46 22 -17 29 35 9 53 7 59 -8z m126 -11 c16 -17 -51 -48
-79 -37 -20 8 -7 23 21 23 13 0 27 5 30 10 7 11 19 13 28 4z m-251 -71 c21
-24 31 -91 30 -188 -1 -64 -7 -91 -29 -138 -37 -79 -41 -62 -42 154 -1 195 4
214 41 172z m264 -18 c3 -8 0 -43 -8 -77 -13 -61 -14 -63 -43 -60 -45 5 -50
16 -30 64 9 24 21 53 26 66 10 25 46 30 55 7z m-366 -51 c0 -8 -4 -12 -10 -9
-5 3 -10 13 -10 21 0 8 5 12 10 9 6 -3 10 -13 10 -21z m490 -79 c0 -8 -6 -15
-12 -15 -7 0 -5 -5 5 -11 21 -12 22 -29 2 -29 -8 0 -15 -4 -15 -10 0 -5 -4
-10 -9 -10 -11 0 -24 67 -16 80 10 16 45 12 45 -5z m-655 -49 c9 -20 11 -44 7
-61 l-8 -27 -11 25 c-7 14 -15 41 -18 61 -9 47 11 48 30 2z m355 -20 c0 -8 -6
-16 -12 -19 -20 -7 -37 3 -31 19 7 18 43 18 43 0z m310 -15 c0 -6 -4 -13 -10
-16 -5 -3 -10 1 -10 9 0 9 5 16 10 16 6 0 10 -4 10 -9z m-331 -52 c-16 -10
-23 -4 -14 10 3 6 11 8 17 5 6 -4 5 -9 -3 -15z m226 -29 c-3 -5 -11 -10 -16
-10 -6 0 -7 5 -4 10 3 6 11 10 16 10 6 0 7 -4 4 -10z m-19 -65 c-4 -14 -11
-25 -16 -25 -13 0 -13 16 1 42 14 26 23 16 15 -17z m-58 -127 c-6 -17 -38 -19
-38 -2 0 8 9 14 21 14 11 0 19 -5 17 -12z m-2178 -88 c-13 -8 -12 -10 3 -10
10 0 15 -4 12 -10 -3 -5 -17 -10 -31 -10 -28 0 -33 26 -6 33 30 8 37 7 22 -3z
m3760 0 c0 -5 -5 -10 -11 -10 -5 0 -7 5 -4 10 3 6 8 10 11 10 2 0 4 -4 4 -10z
m-2872 -32 c6 -31 -103 -54 -199 -43 -38 5 -59 11 -56 19 2 6 15 10 28 9 114
-11 179 0 179 32 0 19 44 4 48 -17z m-908 -113 c0 -16 -35 -21 -44 -6 -8 12 4
21 26 21 10 0 18 -7 18 -15z m-272 -91 c17 -17 15 -23 -6 -17 -10 2 -23 13
-30 23 -10 17 -9 18 6 13 9 -4 23 -12 30 -19z"/>
<path d="M6980 7390 c0 -5 5 -10 10 -10 6 0 10 5 10 10 0 6 -4 10 -10 10 -5 0
-10 -4 -10 -10z"/>
<path d="M6867 7199 c7 -7 15 -10 18 -7 3 3 -2 9 -12 12 -14 6 -15 5 -6 -5z"/>
<path d="M5637 6888 c-3 -9 -16 -18 -29 -21 -19 -4 -20 -4 -3 -5 27 -2 48 13
43 29 -3 10 -6 9 -11 -3z"/>
<path d="M8500 4455 c-5 -13 -19 -30 -30 -37 -59 -35 -79 -155 -36 -205 21
-24 32 -28 78 -29 l53 -1 -4 -39 c-10 -83 -7 -129 8 -129 11 0 18 24 28 89 18
127 40 148 74 70 11 -25 26 -43 32 -41 25 9 6 58 -57 151 -36 53 -77 119 -91
146 -28 56 -41 62 -55 25z m32 -62 c8 -10 27 -38 41 -64 25 -42 26 -46 11 -68
-23 -32 -79 -54 -103 -41 -25 13 -44 72 -36 110 8 34 41 80 59 80 7 0 20 -8
28 -17z"/>
<path d="M8165 4210 c-4 -6 -3 -16 2 -23 88 -120 188 -247 194 -247 21 0 79
66 95 107 l18 46 -24 19 c-30 25 -87 18 -112 -12 -9 -11 -21 -20 -26 -20 -13
0 -74 68 -98 108 -19 32 -38 41 -49 22z m249 -129 c10 -15 -18 -72 -34 -69
-19 4 -25 45 -10 64 14 16 36 19 44 5z"/>
<path d="M8044 4165 c-7 -17 -4 -24 48 -120 72 -131 110 -186 127 -183 12 3
15 12 13 38 l-4 35 34 -32 c34 -33 68 -43 68 -22 0 6 -39 53 -87 104 -49 50
-99 114 -113 141 -20 38 -32 50 -53 52 -18 2 -29 -2 -33 -13z"/>
<path d="M7925 4079 c5 -19 7 -65 5 -104 -3 -38 -4 -89 -4 -112 -1 -62 -20
-55 -91 29 -104 124 -99 119 -115 108 -13 -8 -12 -14 5 -44 33 -56 215 -246
236 -246 18 0 19 6 12 116 -7 139 -1 143 63 39 45 -75 67 -96 84 -79 7 7 -2
29 -28 69 -20 33 -59 103 -87 155 -32 61 -57 96 -69 98 -17 4 -18 0 -11 -29z"/>
<path d="M7214 1496 c-8 -22 3 -33 18 -18 9 9 9 15 0 24 -9 9 -13 7 -18 -6z"/>
<path d="M7746 8265 c4 -8 -1 -17 -10 -21 -9 -3 -13 -10 -10 -15 3 -5 -2 -12
-10 -15 -9 -3 -22 -19 -30 -35 -8 -16 -10 -27 -5 -24 5 3 6 -1 3 -9 -3 -9 -9
-16 -13 -16 -4 0 -8 -7 -8 -15 0 -8 4 -15 9 -15 4 0 8 5 8 10 0 6 5 10 11 10
5 0 7 -4 4 -10 -3 -5 -1 -10 5 -10 8 0 10 -10 6 -27 l-6 -28 15 25 c8 14 14
35 15 48 0 13 7 37 16 54 12 23 13 32 4 38 -9 6 -8 15 4 39 14 27 15 31 2 31
-10 0 -13 -6 -10 -15z m-21 -94 c3 -5 1 -12 -5 -16 -5 -3 -10 1 -10 9 0 18 6
21 15 7z"/>
<path d="M5350 8130 c0 -5 5 -10 11 -10 5 0 7 5 4 10 -3 6 -8 10 -11 10 -2 0
-4 -4 -4 -10z"/>
<path d="M7380 7940 c0 -5 5 -10 10 -10 6 0 10 5 10 10 0 6 -4 10 -10 10 -5 0
-10 -4 -10 -10z"/>
<path d="M7508 7943 c7 -3 16 -2 19 1 4 3 -2 6 -13 5 -11 0 -14 -3 -6 -6z"/>
<path d="M5783 7813 c-36 -91 -50 -137 -34 -112 15 23 72 181 68 186 -2 2 -18
-32 -34 -74z"/>
<path d="M5401 7653 c-21 -96 -23 -110 -12 -94 11 17 35 140 29 147 -3 2 -10
-22 -17 -53z"/>
<path d="M6014 6619 c-3 -6 5 -22 18 -36 23 -23 25 -23 39 -7 9 12 9 15 2 10
-9 -5 -13 -1 -13 12 0 11 -7 23 -16 26 -21 8 -22 8 -30 -5z"/>
<path d="M6100 6606 c0 -10 8 -16 22 -16 12 0 19 1 17 3 -2 1 -12 9 -21 16
-15 12 -18 11 -18 -3z"/>
<path d="M6073 6543 c9 -2 23 -2 30 0 6 3 -1 5 -18 5 -16 0 -22 -2 -12 -5z"/>
<path d="M6135 6490 c-3 -5 -1 -10 4 -10 6 0 11 5 11 10 0 6 -2 10 -4 10 -3 0
-8 -4 -11 -10z"/>
<path d="M6020 6390 c0 -5 4 -10 10 -10 5 0 14 -15 19 -32 6 -21 10 -26 10
-13 1 11 4 31 6 45 4 20 4 21 -3 6 -8 -18 -9 -18 -15 -3 -7 18 -27 23 -27 7z"/>
<path d="M6160 6380 c0 -11 -4 -20 -10 -20 -5 0 -10 -5 -10 -10 0 -6 9 -5 23
2 12 7 23 13 25 14 1 1 0 9 -4 18 -9 22 -24 20 -24 -4z"/>
<path d="M6791 6291 c-14 -4 -26 -12 -29 -19 -5 -16 15 -16 21 1 3 6 6 2 6
-10 1 -25 -26 -32 -46 -12 -7 7 -13 7 -17 1 -3 -6 7 -13 24 -17 31 -7 42 -25
15 -25 -8 0 -15 -7 -15 -15 0 -9 -6 -18 -14 -21 -8 -3 -12 -12 -9 -19 8 -21
51 35 73 95 10 27 18 50 17 49 -1 -1 -13 -4 -26 -8z"/>
<path d="M6654 5783 c-3 -10 -9 -25 -14 -34 -13 -26 -24 -117 -11 -99 9 13 11
13 11 -2 0 -13 8 -18 25 -18 25 0 25 0 9 32 l-17 32 49 -40 c70 -58 74 -60 61
-24 -9 23 -9 35 0 49 10 16 9 19 -3 17 -9 -1 -19 -8 -24 -15 -5 -10 -12 -7
-24 10 -18 27 -21 46 -5 51 11 4 -31 58 -44 58 -4 0 -10 -8 -13 -17z"/>
<path d="M6733 5725 c0 -8 4 -15 9 -15 4 0 8 4 8 9 0 6 -4 12 -8 15 -5 3 -9
-1 -9 -9z"/>
<path d="M6224 5041 c3 -5 16 -11 28 -14 22 -6 22 -5 4 8 -22 17 -40 20 -32 6z"/>
<path d="M7192 4540 c0 -14 2 -19 5 -12 2 6 2 18 0 25 -3 6 -5 1 -5 -13z"/>
<path d="M6684 4016 c11 -9 24 -16 30 -16 12 0 7 5 -24 19 -24 11 -24 11 -6
-3z"/>
<path d="M6918 3883 c7 -3 16 -2 19 1 4 3 -2 6 -13 5 -11 0 -14 -3 -6 -6z"/>
<path d="M6837 3873 c-4 -3 -7 -15 -7 -27 0 -20 0 -20 16 0 15 19 15 19 10 -1
-3 -11 -2 -25 2 -31 10 -16 80 -35 88 -23 3 5 14 9 25 9 18 0 19 5 14 37 -7
45 -10 49 -30 33 -12 -10 -21 -10 -41 -1 -28 12 -67 15 -77 4z"/>
<path d="M4740 1913 c-14 -3 -29 -8 -35 -13 -5 -4 -28 -13 -50 -20 -43 -14
-135 -60 -157 -79 -7 -7 -26 -21 -43 -32 -72 -46 -121 -88 -135 -114 -8 -16
-25 -40 -37 -55 -25 -28 -67 -101 -84 -142 -6 -16 -15 -28 -20 -28 -5 0 -9 -8
-9 -19 0 -10 -9 -21 -20 -24 -19 -5 -29 -37 -11 -37 4 0 11 -25 15 -56 5 -42
3 -59 -8 -70 -25 -24 -8 -45 33 -42 l36 3 0 70 c0 64 5 79 53 178 28 59 52
110 52 112 0 3 15 38 34 79 31 67 78 126 99 126 5 0 66 28 136 61 69 34 151
72 181 85 46 20 50 23 25 22 -16 0 -41 -3 -55 -5z"/>
<path d="M4893 1616 c-34 -11 -65 -24 -69 -29 -4 -4 -16 -7 -26 -7 -10 0 -18
-4 -18 -10 0 -5 -5 -10 -10 -10 -18 0 -159 -100 -188 -132 -15 -17 -34 -38
-43 -47 -9 -9 -27 -34 -39 -56 -71 -128 -96 -166 -112 -171 -10 -3 -21 -16
-24 -30 -7 -27 -12 -28 -48 -14 -42 15 -22 -10 59 -79 66 -55 114 -81 152 -81
9 0 10 7 3 26 -6 14 -10 38 -10 54 0 33 41 147 95 265 94 205 80 191 260 269
61 26 124 53 140 61 l30 14 -45 -1 c-25 0 -73 -10 -107 -22z m-546 -532 c-3
-3 -12 -4 -19 -1 -8 3 -5 6 6 6 11 1 17 -2 13 -5z"/>
<path d="M4085 1325 c-3 -8 -7 -21 -9 -27 -2 -7 2 -28 8 -46 11 -31 12 -32 34
-17 27 20 32 89 6 99 -25 9 -34 7 -39 -9z"/>
</g>
</svg>
