<svg xmlns="http://www.w3.org/2000/svg" viewbox="0 0 240 53">
  <path d="M101.304 13.4568C100.669 13.4568 100.094 13.3187 99.5787 13.0425C99.0695 12.7603 98.6681 12.3731 98.3746 11.8808C98.0871 11.3885 97.9433 10.8331 97.9433 10.2147C97.9433 9.59634 98.0901 9.04099 98.3836 8.54868C98.6771 8.05637 99.0785 7.67213 99.5877 7.39595C100.103 7.11378 100.678 6.97269 101.313 6.97269C101.828 6.97269 102.298 7.06274 102.724 7.24286C103.149 7.42297 103.508 7.68413 103.802 8.02635L103.047 8.7378C102.592 8.24549 102.032 7.99933 101.367 7.99933C100.936 7.99933 100.549 8.09539 100.208 8.28752C99.8662 8.47363 99.5997 8.7348 99.408 9.07101C99.2163 9.40722 99.1204 9.78846 99.1204 10.2147C99.1204 10.641 99.2163 11.0222 99.408 11.3584C99.5997 11.6947 99.8662 11.9588 100.208 12.1509C100.549 12.3371 100.936 12.4301 101.367 12.4301C102.032 12.4301 102.592 12.181 103.047 11.6827L103.802 12.4031C103.508 12.7453 103.146 13.0065 102.715 13.1866C102.289 13.3667 101.819 13.4568 101.304 13.4568Z" fill="#1E42BF"></path>
  <path d="M109.327 8.55768V13.3667H108.258V12.7543C108.078 12.9705 107.854 13.1386 107.584 13.2586C107.315 13.3727 107.024 13.4298 106.713 13.4298C106.072 13.4298 105.565 13.2526 105.194 12.8984C104.829 12.5382 104.646 12.0069 104.646 11.3044V8.55768H105.769V11.1513C105.769 11.5836 105.865 11.9078 106.057 12.1239C106.254 12.3341 106.533 12.4391 106.892 12.4391C107.294 12.4391 107.611 12.3161 107.845 12.0699C108.084 11.8177 108.204 11.4575 108.204 10.9892V8.55768H109.327Z" fill="#1E42BF"></path>
  <path d="M112.281 13.4298C111.891 13.4298 111.511 13.3787 111.139 13.2767C110.768 13.1746 110.471 13.0455 110.25 12.8894L110.681 12.0339C110.897 12.178 111.154 12.295 111.454 12.3851C111.759 12.4691 112.059 12.5112 112.352 12.5112C113.023 12.5112 113.359 12.3341 113.359 11.9798C113.359 11.8117 113.272 11.6947 113.098 11.6286C112.931 11.5626 112.658 11.4995 112.281 11.4395C111.885 11.3795 111.562 11.3104 111.31 11.2324C111.065 11.1543 110.849 11.0192 110.663 10.8271C110.483 10.629 110.394 10.3558 110.394 10.0076C110.394 9.55131 110.582 9.18808 110.96 8.91791C111.343 8.64174 111.858 8.50365 112.505 8.50365C112.835 8.50365 113.164 8.54268 113.494 8.62072C113.823 8.69277 114.093 8.79183 114.302 8.91791L113.871 9.77345C113.464 9.5333 113.005 9.41322 112.496 9.41322C112.167 9.41322 111.915 9.46426 111.741 9.56632C111.574 9.66238 111.49 9.79146 111.49 9.95356C111.49 10.1337 111.58 10.2628 111.759 10.3408C111.945 10.4129 112.23 10.4819 112.613 10.5479C112.996 10.608 113.311 10.677 113.557 10.7551C113.802 10.8331 114.012 10.9652 114.186 11.1513C114.365 11.3374 114.455 11.6016 114.455 11.9438C114.455 12.3941 114.26 12.7543 113.871 13.0245C113.482 13.2947 112.952 13.4298 112.281 13.4298Z" fill="#1E42BF"></path>
  <path d="M118.307 13.1055C118.175 13.2136 118.013 13.2947 117.822 13.3487C117.636 13.4027 117.438 13.4298 117.229 13.4298C116.701 13.4298 116.294 13.2917 116.006 13.0155C115.719 12.7393 115.575 12.3371 115.575 11.8087V9.49428H114.784V8.59371H115.575V7.49502H116.698V8.59371H117.983V9.49428H116.698V11.7817C116.698 12.0159 116.755 12.196 116.869 12.3221C116.983 12.4421 117.148 12.5022 117.363 12.5022C117.615 12.5022 117.825 12.4361 117.992 12.304L118.307 13.1055Z" fill="#1E42BF"></path>
  <path d="M121.229 13.4298C120.744 13.4298 120.307 13.3247 119.917 13.1146C119.528 12.9044 119.223 12.6132 119.001 12.241C118.785 11.8628 118.677 11.4365 118.677 10.9622C118.677 10.4879 118.785 10.0646 119.001 9.6924C119.223 9.32017 119.528 9.02898 119.917 8.81885C120.307 8.60872 120.744 8.50365 121.229 8.50365C121.721 8.50365 122.161 8.60872 122.55 8.81885C122.94 9.02898 123.242 9.32017 123.458 9.6924C123.679 10.0646 123.79 10.4879 123.79 10.9622C123.79 11.4365 123.679 11.8628 123.458 12.241C123.242 12.6132 122.94 12.9044 122.55 13.1146C122.161 13.3247 121.721 13.4298 121.229 13.4298ZM121.229 12.4661C121.643 12.4661 121.984 12.3281 122.254 12.0519C122.523 11.7757 122.658 11.4125 122.658 10.9622C122.658 10.5119 122.523 10.1487 122.254 9.87251C121.984 9.59634 121.643 9.45825 121.229 9.45825C120.816 9.45825 120.475 9.59634 120.205 9.87251C119.941 10.1487 119.81 10.5119 119.81 10.9622C119.81 11.4125 119.941 11.7757 120.205 12.0519C120.475 12.3281 120.816 12.4661 121.229 12.4661Z" fill="#1E42BF"></path>
  <path d="M130.921 8.50365C131.526 8.50365 132.005 8.68076 132.358 9.03499C132.712 9.3832 132.889 9.90854 132.889 10.611V13.3667H131.765V10.7551C131.765 10.3348 131.672 10.0196 131.487 9.80947C131.301 9.59334 131.034 9.48527 130.687 9.48527C130.31 9.48527 130.007 9.61135 129.779 9.86351C129.552 10.1097 129.438 10.4639 129.438 10.9262V13.3667H128.315V10.7551C128.315 10.3348 128.222 10.0196 128.036 9.80947C127.851 9.59334 127.584 9.48527 127.237 9.48527C126.853 9.48527 126.548 9.60835 126.32 9.8545C126.098 10.1007 125.988 10.4579 125.988 10.9262V13.3667H124.864V8.55768H125.934V9.17007C126.113 8.95393 126.338 8.78883 126.608 8.67476C126.877 8.56069 127.177 8.50365 127.506 8.50365C127.866 8.50365 128.183 8.57269 128.459 8.71078C128.74 8.84286 128.962 9.04099 129.124 9.30516C129.321 9.053 129.576 8.85787 129.887 8.71979C130.199 8.5757 130.543 8.50365 130.921 8.50365Z" fill="#1E42BF"></path>
  <path d="M138.878 10.9892C138.878 11.0673 138.872 11.1783 138.861 11.3224H135.096C135.161 11.6766 135.332 11.9588 135.608 12.169C135.889 12.3731 136.237 12.4752 136.65 12.4752C137.177 12.4752 137.612 12.301 137.953 11.9528L138.555 12.6463C138.339 12.9044 138.067 13.0995 137.737 13.2316C137.408 13.3637 137.036 13.4298 136.623 13.4298C136.096 13.4298 135.632 13.3247 135.23 13.1146C134.829 12.9044 134.517 12.6132 134.296 12.241C134.08 11.8628 133.972 11.4365 133.972 10.9622C133.972 10.4939 134.077 10.0736 134.287 9.70141C134.502 9.32317 134.799 9.02898 135.176 8.81885C135.554 8.60872 135.979 8.50365 136.452 8.50365C136.92 8.50365 137.336 8.60872 137.701 8.81885C138.073 9.02298 138.36 9.31416 138.564 9.6924C138.774 10.0646 138.878 10.4969 138.878 10.9892ZM136.452 9.40422C136.093 9.40422 135.787 9.51229 135.536 9.72842C135.29 9.93855 135.14 10.2207 135.087 10.575H137.809C137.761 10.2267 137.615 9.94456 137.369 9.72842C137.123 9.51229 136.818 9.40422 136.452 9.40422Z" fill="#1E42BF"></path>
  <path d="M141.027 9.26013C141.35 8.75581 141.919 8.50365 142.734 8.50365V9.57533C142.638 9.55731 142.551 9.54831 142.473 9.54831C142.036 9.54831 141.695 9.67739 141.449 9.93555C141.203 10.1877 141.081 10.5539 141.081 11.0342V13.3667H139.957V8.55768H141.027V9.26013Z" fill="#1E42BF"></path>
  <path d="M151.039 12.3851V13.3667H146.322V7.06274H150.913V8.04436H147.49V9.68339H150.527V10.647H147.49V12.3851H151.039Z" fill="#1E42BF"></path>
  <path d="M154.956 8.50365C155.561 8.50365 156.047 8.68076 156.412 9.03499C156.777 9.38921 156.96 9.91454 156.96 10.611V13.3667H155.837V10.7551C155.837 10.3348 155.738 10.0196 155.54 9.80947C155.343 9.59334 155.061 9.48527 154.696 9.48527C154.282 9.48527 153.956 9.61135 153.716 9.86351C153.477 10.1097 153.357 10.4669 153.357 10.9352V13.3667H152.234V8.55768H153.303V9.17908C153.489 8.95694 153.722 8.78883 154.004 8.67476C154.285 8.56069 154.603 8.50365 154.956 8.50365Z" fill="#1E42BF"></path>
  <path d="M163.191 8.55768V12.6373C163.191 14.3303 162.329 15.1769 160.603 15.1769C160.142 15.1769 159.705 15.1168 159.291 14.9967C158.878 14.8827 158.537 14.7146 158.267 14.4924L158.77 13.6459C158.98 13.82 159.244 13.9581 159.561 14.0602C159.885 14.1682 160.211 14.2223 160.54 14.2223C161.068 14.2223 161.454 14.1022 161.7 13.862C161.945 13.6219 162.068 13.2556 162.068 12.7633V12.5112C161.876 12.7213 161.643 12.8804 161.367 12.9885C161.092 13.0965 160.789 13.1506 160.46 13.1506C160.004 13.1506 159.591 13.0545 159.22 12.8624C158.854 12.6643 158.564 12.3881 158.348 12.0339C158.138 11.6797 158.033 11.2744 158.033 10.8181C158.033 10.3618 158.138 9.95957 158.348 9.61135C158.564 9.25713 158.854 8.98395 159.22 8.79183C159.591 8.59971 160.004 8.50365 160.46 8.50365C160.807 8.50365 161.122 8.56069 161.403 8.67476C161.691 8.78883 161.93 8.96294 162.122 9.19709V8.55768H163.191ZM160.63 12.196C161.056 12.196 161.403 12.0699 161.673 11.8177C161.948 11.5596 162.086 11.2264 162.086 10.8181C162.086 10.4159 161.948 10.0886 161.673 9.83649C161.403 9.58433 161.056 9.45825 160.63 9.45825C160.199 9.45825 159.846 9.58433 159.57 9.83649C159.3 10.0886 159.166 10.4159 159.166 10.8181C159.166 11.2264 159.3 11.5596 159.57 11.8177C159.846 12.0699 160.199 12.196 160.63 12.196Z" fill="#1E42BF"></path>
  <path d="M166.501 8.50365C167.208 8.50365 167.747 8.67476 168.118 9.01697C168.496 9.35319 168.684 9.86351 168.684 10.5479V13.3667H167.624V12.7813C167.486 12.9915 167.289 13.1536 167.031 13.2677C166.78 13.3757 166.474 13.4298 166.115 13.4298C165.755 13.4298 165.441 13.3697 165.171 13.2496C164.902 13.1236 164.692 12.9525 164.542 12.7363C164.398 12.5142 164.326 12.265 164.326 11.9888C164.326 11.5566 164.485 11.2114 164.803 10.9532C165.126 10.689 165.632 10.5569 166.321 10.5569H167.561V10.4849C167.561 10.1487 167.459 9.89052 167.256 9.71041C167.058 9.5303 166.762 9.44024 166.366 9.44024C166.097 9.44024 165.83 9.48227 165.566 9.56632C165.309 9.65037 165.09 9.76745 164.91 9.91754L164.47 9.09803C164.722 8.9059 165.024 8.75881 165.378 8.65675C165.731 8.55468 166.106 8.50365 166.501 8.50365ZM166.348 12.6102C166.63 12.6102 166.878 12.5472 167.094 12.4211C167.316 12.289 167.471 12.1029 167.561 11.8628V11.3044H166.402C165.755 11.3044 165.432 11.5175 165.432 11.9438C165.432 12.1479 165.513 12.31 165.674 12.4301C165.836 12.5502 166.061 12.6102 166.348 12.6102Z" fill="#1E42BF"></path>
  <path d="M174.932 8.55768V12.6373C174.932 14.3303 174.07 15.1769 172.344 15.1769C171.883 15.1769 171.446 15.1168 171.032 14.9967C170.619 14.8827 170.278 14.7146 170.008 14.4924L170.511 13.6459C170.721 13.82 170.985 13.9581 171.302 14.0602C171.626 14.1682 171.952 14.2223 172.281 14.2223C172.809 14.2223 173.195 14.1022 173.441 13.862C173.686 13.6219 173.809 13.2556 173.809 12.7633V12.5112C173.617 12.7213 173.384 12.8804 173.108 12.9885C172.833 13.0965 172.53 13.1506 172.201 13.1506C171.745 13.1506 171.332 13.0545 170.961 12.8624C170.595 12.6643 170.305 12.3881 170.089 12.0339C169.879 11.6797 169.774 11.2744 169.774 10.8181C169.774 10.3618 169.879 9.95957 170.089 9.61135C170.305 9.25713 170.595 8.98395 170.961 8.79183C171.332 8.59971 171.745 8.50365 172.201 8.50365C172.548 8.50365 172.863 8.56069 173.144 8.67476C173.432 8.78883 173.671 8.96294 173.863 9.19709V8.55768H174.932ZM172.371 12.196C172.797 12.196 173.144 12.0699 173.414 11.8177C173.689 11.5596 173.827 11.2264 173.827 10.8181C173.827 10.4159 173.689 10.0886 173.414 9.83649C173.144 9.58433 172.797 9.45825 172.371 9.45825C171.94 9.45825 171.587 9.58433 171.311 9.83649C171.041 10.0886 170.907 10.4159 170.907 10.8181C170.907 11.2264 171.041 11.5596 171.311 11.8177C171.587 12.0699 171.94 12.196 172.371 12.196Z" fill="#1E42BF"></path>
  <path d="M180.92 10.9892C180.92 11.0673 180.914 11.1783 180.902 11.3224H177.137C177.203 11.6766 177.373 11.9588 177.649 12.169C177.93 12.3731 178.278 12.4752 178.691 12.4752C179.218 12.4752 179.653 12.301 179.994 11.9528L180.596 12.6463C180.381 12.9044 180.108 13.0995 179.778 13.2316C179.449 13.3637 179.078 13.4298 178.664 13.4298C178.137 13.4298 177.673 13.3247 177.272 13.1146C176.87 12.9044 176.559 12.6132 176.337 12.241C176.121 11.8628 176.014 11.4365 176.014 10.9622C176.014 10.4939 176.118 10.0736 176.328 9.70141C176.544 9.32317 176.84 9.02898 177.218 8.81885C177.595 8.60872 178.02 8.50365 178.494 8.50365C178.961 8.50365 179.377 8.60872 179.743 8.81885C180.114 9.02298 180.402 9.31416 180.605 9.6924C180.815 10.0646 180.92 10.4969 180.92 10.9892ZM178.494 9.40422C178.134 9.40422 177.829 9.51229 177.577 9.72842C177.331 9.93855 177.182 10.2207 177.128 10.575H179.85C179.802 10.2267 179.656 9.94456 179.41 9.72842C179.164 9.51229 178.859 9.40422 178.494 9.40422Z" fill="#1E42BF"></path>
  <path d="M188.055 8.50365C188.66 8.50365 189.139 8.68076 189.493 9.03499C189.846 9.3832 190.023 9.90854 190.023 10.611V13.3667H188.9V10.7551C188.9 10.3348 188.807 10.0196 188.621 9.80947C188.435 9.59334 188.169 9.48527 187.821 9.48527C187.444 9.48527 187.141 9.61135 186.914 9.86351C186.686 10.1097 186.572 10.4639 186.572 10.9262V13.3667H185.449V10.7551C185.449 10.3348 185.356 10.0196 185.171 9.80947C184.985 9.59334 184.718 9.48527 184.371 9.48527C183.987 9.48527 183.682 9.60835 183.454 9.8545C183.233 10.1007 183.122 10.4579 183.122 10.9262V13.3667H181.999V8.55768H183.068V9.17007C183.248 8.95393 183.472 8.78883 183.742 8.67476C184.011 8.56069 184.311 8.50365 184.64 8.50365C185 8.50365 185.317 8.57269 185.593 8.71078C185.874 8.84286 186.096 9.04099 186.258 9.30516C186.455 9.053 186.71 8.85787 187.022 8.71979C187.333 8.5757 187.677 8.50365 188.055 8.50365Z" fill="#1E42BF"></path>
  <path d="M196.013 10.9892C196.013 11.0673 196.007 11.1783 195.995 11.3224H192.23C192.296 11.6766 192.466 11.9588 192.742 12.169C193.024 12.3731 193.371 12.4752 193.784 12.4752C194.311 12.4752 194.746 12.301 195.087 11.9528L195.689 12.6463C195.474 12.9044 195.201 13.0995 194.872 13.2316C194.542 13.3637 194.171 13.4298 193.757 13.4298C193.23 13.4298 192.766 13.3247 192.365 13.1146C191.963 12.9044 191.652 12.6132 191.43 12.241C191.214 11.8628 191.107 11.4365 191.107 10.9622C191.107 10.4939 191.211 10.0736 191.421 9.70141C191.637 9.32317 191.933 9.02898 192.311 8.81885C192.688 8.60872 193.113 8.50365 193.587 8.50365C194.054 8.50365 194.47 8.60872 194.836 8.81885C195.207 9.02298 195.495 9.31416 195.698 9.6924C195.908 10.0646 196.013 10.4969 196.013 10.9892ZM193.587 9.40422C193.227 9.40422 192.922 9.51229 192.67 9.72842C192.424 9.93855 192.275 10.2207 192.221 10.575H194.943C194.896 10.2267 194.749 9.94456 194.503 9.72842C194.258 9.51229 193.952 9.40422 193.587 9.40422Z" fill="#1E42BF"></path>
  <path d="M199.814 8.50365C200.419 8.50365 200.905 8.68076 201.27 9.03499C201.635 9.38921 201.818 9.91454 201.818 10.611V13.3667H200.695V10.7551C200.695 10.3348 200.596 10.0196 200.398 9.80947C200.201 9.59334 199.919 9.48527 199.554 9.48527C199.14 9.48527 198.814 9.61135 198.574 9.86351C198.335 10.1097 198.215 10.4669 198.215 10.9352V13.3667H197.092V8.55768H198.161V9.17908C198.347 8.95694 198.58 8.78883 198.862 8.67476C199.143 8.56069 199.461 8.50365 199.814 8.50365Z" fill="#1E42BF"></path>
  <path d="M206.127 13.1055C205.996 13.2136 205.834 13.2947 205.642 13.3487C205.456 13.4027 205.259 13.4298 205.049 13.4298C204.522 13.4298 204.115 13.2917 203.827 13.0155C203.539 12.7393 203.396 12.3371 203.396 11.8087V9.49428H202.605V8.59371H203.396V7.49502H204.519V8.59371H205.804V9.49428H204.519V11.7817C204.519 12.0159 204.576 12.196 204.69 12.3221C204.803 12.4421 204.968 12.5022 205.184 12.5022C205.435 12.5022 205.645 12.4361 205.813 12.304L206.127 13.1055Z" fill="#1E42BF"></path>
  <path d="M212.554 13.4568C211.919 13.4568 211.344 13.3187 210.829 13.0425C210.319 12.7603 209.918 12.3731 209.625 11.8808C209.337 11.3885 209.193 10.8331 209.193 10.2147C209.193 9.59634 209.34 9.04099 209.633 8.54868C209.927 8.05637 210.328 7.67213 210.838 7.39595C211.353 7.11378 211.928 6.97269 212.563 6.97269C213.078 6.97269 213.548 7.06274 213.974 7.24286C214.399 7.42297 214.758 7.68413 215.052 8.02635L214.297 8.7378C213.842 8.24549 213.282 7.99933 212.617 7.99933C212.185 7.99933 211.799 8.09539 211.458 8.28752C211.116 8.47363 210.85 8.7348 210.658 9.07101C210.466 9.40722 210.37 9.78846 210.37 10.2147C210.37 10.641 210.466 11.0222 210.658 11.3584C210.85 11.6947 211.116 11.9588 211.458 12.1509C211.799 12.3371 212.185 12.4301 212.617 12.4301C213.282 12.4301 213.842 12.181 214.297 11.6827L215.052 12.4031C214.758 12.7453 214.396 13.0065 213.965 13.1866C213.539 13.3667 213.069 13.4568 212.554 13.4568Z" fill="#1E42BF"></path>
  <path d="M220.399 10.9892C220.399 11.0673 220.393 11.1783 220.381 11.3224H216.616C216.681 11.6766 216.852 11.9588 217.128 12.169C217.409 12.3731 217.757 12.4752 218.17 12.4752C218.697 12.4752 219.132 12.301 219.473 11.9528L220.075 12.6463C219.859 12.9044 219.587 13.0995 219.257 13.2316C218.928 13.3637 218.556 13.4298 218.143 13.4298C217.616 13.4298 217.152 13.3247 216.75 13.1146C216.349 12.9044 216.038 12.6132 215.816 12.241C215.6 11.8628 215.492 11.4365 215.492 10.9622C215.492 10.4939 215.597 10.0736 215.807 9.70141C216.023 9.32317 216.319 9.02898 216.696 8.81885C217.074 8.60872 217.499 8.50365 217.972 8.50365C218.44 8.50365 218.856 8.60872 219.221 8.81885C219.593 9.02298 219.88 9.31416 220.084 9.6924C220.294 10.0646 220.399 10.4969 220.399 10.9892ZM217.972 9.40422C217.613 9.40422 217.307 9.51229 217.056 9.72842C216.81 9.93855 216.661 10.2207 216.607 10.575H219.329C219.281 10.2267 219.135 9.94456 218.889 9.72842C218.643 9.51229 218.338 9.40422 217.972 9.40422Z" fill="#1E42BF"></path>
  <path d="M224.2 8.50365C224.805 8.50365 225.29 8.68076 225.656 9.03499C226.021 9.38921 226.204 9.91454 226.204 10.611V13.3667H225.081V10.7551C225.081 10.3348 224.982 10.0196 224.784 9.80947C224.586 9.59334 224.305 9.48527 223.94 9.48527C223.526 9.48527 223.2 9.61135 222.96 9.86351C222.72 10.1097 222.601 10.4669 222.601 10.9352V13.3667H221.477V8.55768H222.547V9.17908C222.732 8.95694 222.966 8.78883 223.248 8.67476C223.529 8.56069 223.847 8.50365 224.2 8.50365Z" fill="#1E42BF"></path>
  <path d="M230.513 13.1055C230.381 13.2136 230.22 13.2947 230.028 13.3487C229.842 13.4027 229.645 13.4298 229.435 13.4298C228.908 13.4298 228.5 13.2917 228.213 13.0155C227.925 12.7393 227.782 12.3371 227.782 11.8087V9.49428H226.991V8.59371H227.782V7.49502H228.905V8.59371H230.19V9.49428H228.905V11.7817C228.905 12.0159 228.962 12.196 229.075 12.3221C229.189 12.4421 229.354 12.5022 229.57 12.5022C229.821 12.5022 230.031 12.4361 230.199 12.304L230.513 13.1055Z" fill="#1E42BF"></path>
  <path d="M235.79 10.9892C235.79 11.0673 235.784 11.1783 235.772 11.3224H232.007C232.073 11.6766 232.244 11.9588 232.519 12.169C232.801 12.3731 233.148 12.4752 233.562 12.4752C234.089 12.4752 234.523 12.301 234.864 11.9528L235.466 12.6463C235.251 12.9044 234.978 13.0995 234.649 13.2316C234.319 13.3637 233.948 13.4298 233.535 13.4298C233.007 13.4298 232.543 13.3247 232.142 13.1146C231.74 12.9044 231.429 12.6132 231.207 12.241C230.992 11.8628 230.884 11.4365 230.884 10.9622C230.884 10.4939 230.989 10.0736 231.198 9.70141C231.414 9.32317 231.71 9.02898 232.088 8.81885C232.465 8.60872 232.891 8.50365 233.364 8.50365C233.831 8.50365 234.247 8.60872 234.613 8.81885C234.984 9.02298 235.272 9.31416 235.475 9.6924C235.685 10.0646 235.79 10.4969 235.79 10.9892ZM233.364 9.40422C233.004 9.40422 232.699 9.51229 232.447 9.72842C232.202 9.93855 232.052 10.2207 231.998 10.575H234.721C234.673 10.2267 234.526 9.94456 234.28 9.72842C234.035 9.51229 233.729 9.40422 233.364 9.40422Z" fill="#1E42BF"></path>
  <path d="M237.938 9.26013C238.262 8.75581 238.831 8.50365 239.645 8.50365V9.57533C239.55 9.55731 239.463 9.54831 239.385 9.54831C238.948 9.54831 238.606 9.67739 238.36 9.93555C238.115 10.1877 237.992 10.5539 237.992 11.0342V13.3667H236.869V8.55768H237.938V9.26013Z" fill="#1E42BF"></path>
  <path d="M75.77 43.8509C72.4893 43.8509 69.518 43.1375 66.8563 41.7106C64.2255 40.2527 62.1518 38.2519 60.6352 35.7083C59.1496 33.1647 58.4068 30.2954 58.4068 27.1004C58.4068 23.9054 59.1651 21.0361 60.6817 18.4925C62.1982 15.9488 64.2719 13.9636 66.9027 12.5367C69.5645 11.0788 72.5357 10.3498 75.8165 10.3498C78.4782 10.3498 80.9078 10.8151 83.1053 11.7457C85.1899 12.6285 86.9682 13.8881 88.44 15.5246C88.574 15.6736 88.5616 15.9019 88.4158 16.0394L85.052 19.21C84.9003 19.353 84.6615 19.3442 84.5158 19.195C82.2115 16.8344 79.4046 15.6542 76.095 15.6542C73.8666 15.6542 71.8703 16.1505 70.1061 17.1431C68.3419 18.1047 66.9646 19.4541 65.9742 21.1912C64.9838 22.9282 64.4886 24.898 64.4886 27.1004C64.4886 29.3028 64.9838 31.2725 65.9742 33.0096C66.9646 34.7467 68.3419 36.1115 70.1061 37.1042C71.8703 38.0658 73.8666 38.5466 76.095 38.5466C79.4039 38.5466 82.2103 37.3525 84.5142 34.9642C84.6602 34.8128 84.9017 34.804 85.0538 34.9492L88.419 38.1613C88.5633 38.299 88.5749 38.5261 88.4415 38.6744C86.9678 40.3117 85.1736 41.5719 83.0589 42.455C80.8614 43.3856 78.4318 43.8509 75.77 43.8509Z" fill="#1E42BF"></path>
  <path d="M102.398 18.2598C106.05 18.2598 108.835 19.1439 110.754 20.912C112.704 22.6491 113.679 25.2857 113.679 28.822V43.0104C113.679 43.2176 113.511 43.3856 113.304 43.3856H108.576C108.369 43.3856 108.201 43.2176 108.201 43.0104V40.3612C107.489 41.4469 106.468 42.2844 105.137 42.8738C103.837 43.4322 102.258 43.7113 100.401 43.7113C98.5442 43.7113 96.9193 43.4011 95.5266 42.7808C94.1338 42.1293 93.0505 41.2453 92.2768 40.1286C91.5339 38.9809 91.1625 37.6935 91.1625 36.2666C91.1625 34.0332 91.9827 32.2496 93.6231 30.9158C95.2944 29.5509 97.9097 28.8685 101.469 28.8685H107.504C107.709 28.8685 107.876 28.7018 107.876 28.4963C107.876 26.7592 107.35 25.4253 106.297 24.4947C105.276 23.5641 103.744 23.0989 101.701 23.0989C100.308 23.0989 98.9311 23.316 97.5693 23.7503C96.4062 24.1298 95.3967 24.6396 94.5409 25.2798C94.3508 25.422 94.0749 25.369 93.9625 25.1598L92.0568 21.6126C91.9695 21.4502 92.0127 21.2479 92.1622 21.1401C93.4096 20.2403 94.887 19.5439 96.5944 19.0508C98.4204 18.5235 100.355 18.2598 102.398 18.2598ZM101.608 39.4772C103.063 39.4772 104.347 39.1515 105.462 38.5001C106.607 37.8176 107.412 36.856 107.876 35.6152V33.1057C107.876 32.8984 107.708 32.7304 107.501 32.7304H101.887C98.5442 32.7304 96.8729 33.8316 96.8729 36.034C96.8729 37.0887 97.2907 37.9262 98.1264 38.5466C98.9621 39.167 100.123 39.4772 101.608 39.4772Z" fill="#1E42BF"></path>
  <path d="M126.541 43.7113C124.529 43.7113 122.563 43.4477 120.645 42.9203C118.872 42.4331 117.429 41.8267 116.316 41.1012C116.161 40.9995 116.11 40.7964 116.194 40.6302L118.086 36.8777C118.187 36.6766 118.442 36.6099 118.633 36.7281C119.672 37.3687 120.884 37.8973 122.269 38.3139C123.848 38.7482 125.395 38.9653 126.912 38.9653C130.378 38.9653 132.112 38.0503 132.112 36.2201C132.112 35.3516 131.663 34.7467 130.765 34.4055C129.899 34.0643 128.49 33.7386 126.541 33.4284C124.498 33.1182 122.827 32.7614 121.527 32.3582C120.258 31.9549 119.143 31.257 118.184 30.2644C117.255 29.2407 116.791 27.8293 116.791 26.0302C116.791 23.6727 117.766 21.796 119.716 20.4002C121.697 18.9733 124.359 18.2598 127.701 18.2598C129.404 18.2598 131.106 18.4614 132.808 18.8647C134.356 19.2032 135.648 19.6572 136.684 20.2266C136.857 20.3212 136.918 20.5359 136.83 20.7113L134.938 24.4628C134.841 24.6564 134.6 24.7267 134.41 24.6223C132.393 23.5136 130.142 22.9593 127.655 22.9593C125.953 22.9593 124.653 23.2229 123.755 23.7503C122.888 24.2466 122.455 24.9135 122.455 25.751C122.455 26.6816 122.919 27.3485 123.848 27.7518C124.807 28.124 126.278 28.4807 128.258 28.822C130.239 29.1322 131.864 29.4889 133.133 29.8921C134.402 30.2954 135.485 30.9778 136.383 31.9394C137.311 32.901 137.776 34.2659 137.776 36.034C137.776 38.3605 136.77 40.2216 134.758 41.6175C132.746 43.0134 130.007 43.7113 126.541 43.7113Z" fill="#1E42BF"></path>
  <path d="M152.65 43.7113C150.081 43.7113 147.775 43.1685 145.733 42.0828C143.69 40.9971 142.096 39.4927 140.951 37.5695C139.806 35.6152 139.233 33.4128 139.233 30.9623C139.233 28.5118 139.806 26.3249 140.951 24.4017C142.096 22.4785 143.674 20.974 145.686 19.8883C147.729 18.8026 150.05 18.2598 152.65 18.2598C155.095 18.2598 157.231 18.7561 159.057 19.7487C160.809 20.6852 162.147 22.0082 163.073 23.7177C163.167 23.8915 163.102 24.107 162.932 24.2067L159.093 26.4508C158.918 26.5533 158.694 26.4968 158.579 26.3288C157.901 25.3344 157.07 24.5835 156.086 24.076C155.033 23.4866 153.873 23.1919 152.604 23.1919C150.437 23.1919 148.642 23.9054 147.218 25.3323C145.794 26.7281 145.083 28.6048 145.083 30.9623C145.083 33.3198 145.779 35.212 147.172 36.6389C148.595 38.0348 150.406 38.7327 152.604 38.7327C153.873 38.7327 155.033 38.4535 156.086 37.8952C157.07 37.3594 157.901 36.593 158.579 35.5959C158.694 35.4278 158.918 35.3713 159.093 35.4738L162.928 37.7156C163.1 37.8163 163.164 38.0346 163.067 38.209C162.114 39.9192 160.762 41.257 159.01 42.2224C157.184 43.215 155.064 43.7113 152.65 43.7113Z" fill="#1E42BF"></path>
  <path d="M176.225 18.2598C179.877 18.2598 182.663 19.1439 184.581 20.912C186.531 22.6491 187.506 25.2857 187.506 28.822V43.0104C187.506 43.2176 187.338 43.3856 187.131 43.3856H182.403C182.196 43.3856 182.028 43.2176 182.028 43.0104V40.3612C181.316 41.4469 180.295 42.2844 178.964 42.8738C177.664 43.4322 176.086 43.7113 174.229 43.7113C172.372 43.7113 170.747 43.4011 169.354 42.7808C167.961 42.1293 166.878 41.2453 166.104 40.1286C165.361 38.9809 164.99 37.6935 164.99 36.2666C164.99 34.0332 165.81 32.2496 167.45 30.9158C169.122 29.5509 171.737 28.8685 175.296 28.8685H181.331C181.537 28.8685 181.703 28.7018 181.703 28.4963C181.703 26.7592 181.177 25.4253 180.125 24.4947C179.103 23.5641 177.571 23.0989 175.528 23.0989C174.136 23.0989 172.758 23.316 171.397 23.7503C170.233 24.1298 169.224 24.6396 168.368 25.2798C168.178 25.422 167.902 25.369 167.79 25.1598L165.884 21.6126C165.797 21.4502 165.84 21.2479 165.989 21.1401C167.237 20.2403 168.714 19.5439 170.422 19.0508C172.248 18.5235 174.182 18.2598 176.225 18.2598ZM175.436 39.4772C176.89 39.4772 178.175 39.1515 179.289 38.5001C180.434 37.8176 181.239 36.856 181.703 35.6152V33.1057C181.703 32.8984 181.535 32.7304 181.328 32.7304H175.714C172.372 32.7304 170.7 33.8316 170.7 36.034C170.7 37.0887 171.118 37.9262 171.954 38.5466C172.789 39.167 173.95 39.4772 175.436 39.4772Z" fill="#1E42BF"></path>
  <path d="M204.528 18.2598C207.654 18.2598 210.161 19.1749 212.049 21.005C213.937 22.8352 214.881 25.5494 214.881 29.1477V43.0104C214.881 43.2176 214.713 43.3856 214.506 43.3856H209.453C209.246 43.3856 209.078 43.2176 209.078 43.0104V29.8921C209.078 27.7208 208.567 26.0922 207.546 25.0066C206.525 23.8899 205.07 23.3315 203.182 23.3315C201.046 23.3315 199.359 23.9829 198.121 25.2857C196.883 26.5575 196.264 28.4032 196.264 30.8227V43.0104C196.264 43.2176 196.097 43.3856 195.889 43.3856H190.836C190.629 43.3856 190.461 43.2176 190.461 43.0104V18.9142C190.461 18.707 190.629 18.539 190.836 18.539H195.611C195.818 18.539 195.986 18.707 195.986 18.9142V21.7495C196.945 20.6018 198.152 19.7332 199.607 19.1439C201.062 18.5545 202.702 18.2598 204.528 18.2598Z" fill="#1E42BF"></path>
  <path d="M228.719 18.2598C232.371 18.2598 235.156 19.1439 237.075 20.912C239.025 22.6491 240 25.2857 240 28.822V43.0104C240 43.2176 239.832 43.3856 239.625 43.3856H234.897C234.69 43.3856 234.522 43.2176 234.522 43.0104V40.3612C233.81 41.4469 232.789 42.2844 231.458 42.8738C230.158 43.4322 228.579 43.7113 226.722 43.7113C224.865 43.7113 223.24 43.4011 221.848 42.7808C220.455 42.1293 219.372 41.2453 218.598 40.1286C217.855 38.9809 217.484 37.6935 217.484 36.2666C217.484 34.0332 218.304 32.2496 219.944 30.9158C221.615 29.5509 224.231 28.8685 227.79 28.8685H233.825C234.03 28.8685 234.197 28.7018 234.197 28.4963C234.197 26.7592 233.671 25.4253 232.618 24.4947C231.597 23.5641 230.065 23.0989 228.022 23.0989C226.629 23.0989 225.252 23.316 223.89 23.7503C222.727 24.1298 221.718 24.6396 220.862 25.2798C220.672 25.422 220.396 25.369 220.284 25.1598L218.378 21.6126C218.291 21.4502 218.334 21.2479 218.483 21.1401C219.731 20.2403 221.208 19.5439 222.915 19.0508C224.741 18.5235 226.676 18.2598 228.719 18.2598ZM227.929 39.4772C229.384 39.4772 230.668 39.1515 231.783 38.5001C232.928 37.8176 233.733 36.856 234.197 35.6152V33.1057C234.197 32.8984 234.029 32.7304 233.822 32.7304H228.208C224.865 32.7304 223.194 33.8316 223.194 36.034C223.194 37.0887 223.612 37.9262 224.447 38.5466C225.283 39.167 226.444 39.4772 227.929 39.4772Z" fill="#1E42BF"></path>
  <path d="M14.9761 0.375516C14.9761 0.120352 15.2251 -0.0603983 15.4675 0.018822L49.1624 11.0308C49.3167 11.0812 49.421 11.2251 49.421 11.3875V40.6169C49.421 40.8721 49.172 41.0528 48.9296 40.9736L44.438 39.5057C44.2837 39.4553 44.1794 39.3113 44.1794 39.149V15.1981C44.1794 15.0357 44.0749 14.8916 43.9205 14.8413L15.235 5.49778C15.0806 5.44748 14.9761 5.30346 14.9761 5.14097V0.375516Z" fill="#1E42BF"></path>
  <path fill-rule="evenodd" clip-rule="evenodd" d="M0.491426 12.0264C0.249024 11.9472 0 12.1279 0 12.3831V41.6125C0 41.7749 0.104344 41.9188 0.258575 41.9692L33.9535 52.9812C34.1959 53.0604 34.4449 52.8796 34.4449 52.6245V23.3951C34.4449 23.2327 34.3406 23.0888 34.1864 23.0384L0.491426 12.0264ZM5.73305 19.265C5.49065 19.1858 5.24162 19.3665 5.24162 19.6217V37.8C5.24162 37.9623 5.34597 38.1063 5.5002 38.1567L28.7119 45.7426C28.9543 45.8218 29.2033 45.6411 29.2033 45.3859V27.2076C29.2033 27.0452 29.099 26.9013 28.9447 26.8509L5.73305 19.265Z" fill="#1E42BF"></path>
  <path d="M7.97946 6.0226C7.73706 5.94338 7.48803 6.12413 7.48803 6.3793V11.1338C7.48803 11.2963 7.59255 11.4403 7.74696 11.4906L36.4324 20.8342C36.5868 20.8845 36.6914 21.0285 36.6914 21.191V45.1528C36.6914 45.3151 36.7957 45.4591 36.9499 45.5095L41.4416 46.9774C41.684 47.0566 41.933 46.8759 41.933 46.6207V17.3913C41.933 17.2289 41.8286 17.085 41.6744 17.0346L7.97946 6.0226Z" fill="#1E42BF"></path>
</svg>
