<svg class="svg-icon" viewBox="0 0 659 164" fill="none" xmlns="http://www.w3.org/2000/svg">
<path d="M260.148 28.4366V74.7116H194.339V28.4366H202.707V67.3774H223.104V28.4366H231.471V67.3774H251.781V28.4366H260.148Z" fill="#0E2DBE"></path>
<path d="M328.409 75.2355C314.923 75.2355 304.352 64.9673 304.352 51.5741C304.352 38.1949 314.967 28 328.409 28C341.761 28 352.38 38.2767 352.38 51.5741C352.38 65.0856 341.585 75.2355 328.409 75.2355ZM328.409 67.9013C337.45 67.9013 343.925 60.5572 343.925 51.5741C343.925 42.7483 337.591 35.3342 328.409 35.3342C319.379 35.3342 312.807 42.5458 312.807 51.5741C312.807 60.4411 319.182 67.9013 328.409 67.9013Z" fill="#0E2DBE"></path>
<path d="M380.888 28C394.068 28 404.248 38.1892 404.248 51.5741C404.248 64.7613 394.368 75.2355 380.888 75.2355C374.622 75.2355 368.673 72.7117 364.763 67.7267V91.65H356.395V28.4366H364.414V35.7707C368.216 30.5349 374.544 28 380.888 28ZM380.191 67.9013C389.346 67.9013 395.794 60.3976 395.794 51.5741C395.794 42.6017 389.168 35.3342 380.191 35.3342C371.251 35.3342 364.676 42.7069 364.676 51.5741C364.676 60.5484 371.152 67.9013 380.191 67.9013Z" fill="#0E2DBE"></path>
<path d="M236.187 106.361H219.278V145.302H210.91V106.361H194V99.0265H236.187V106.361Z" fill="#0E2DBE"></path>
<path d="M316.292 145.302L302.956 127.577L289.445 145.302H280.119L298.336 121.64L280.99 99.0265H290.317L303.043 115.703L315.682 99.0265H324.834L307.401 121.64L325.793 145.302H316.292Z" fill="#0E2DBE"></path>
<path d="M328.385 99.0265H336.753V118.672H363.076V99.0265H371.444V145.302H363.076V125.918H336.753V145.302H328.385V99.0265Z" fill="#0E2DBE"></path>
<path d="M399.433 145.825C386.2 145.825 375.376 135.752 375.376 122.164C375.376 108.785 385.991 98.5899 399.433 98.5899C412.582 98.5899 423.404 108.655 423.404 122.164C423.404 135.476 412.828 145.825 399.433 145.825ZM399.433 138.491C408.474 138.491 414.949 131.147 414.949 122.164C414.949 113.338 408.615 105.924 399.433 105.924C390.403 105.924 383.831 113.136 383.831 122.164C383.831 131.031 390.206 138.491 399.433 138.491Z" fill="#0E2DBE"></path>
<path d="M496.077 145.825C482.844 145.825 472.02 135.752 472.02 122.164C472.02 108.785 482.635 98.5899 496.077 98.5899C509.428 98.5899 520.047 108.867 520.047 122.164C520.047 135.676 509.253 145.825 496.077 145.825ZM496.077 138.491C505.3 138.491 511.592 131.002 511.592 122.164C511.592 113.338 505.259 105.924 496.077 105.924C487.046 105.924 480.474 113.136 480.474 122.164C480.474 131.031 486.849 138.491 496.077 138.491Z" fill="#0E2DBE"></path>
<path fill-rule="evenodd" clip-rule="evenodd" d="M532.431 106.361H550.735L558.057 99.0265H524.063V145.302H532.431V106.361Z" fill="#0E2DBE"></path>
<path fill-rule="evenodd" clip-rule="evenodd" d="M275.363 106.063C275.815 106.516 276.37 107.154 277.027 107.977L250.524 134.525C253.77 137.035 257.345 138.105 261.249 137.735C265.152 137.282 268.706 135.451 271.911 132.24C275.67 128.475 277.505 124.194 277.416 119.399H284.485C285.017 126.328 281.698 132.81 276.904 137.612C267.345 147.187 252.648 148.506 242.635 138.476C233.468 129.293 232.993 114.796 242.389 105.384C251.722 96.0346 266.077 96.7616 275.363 106.063ZM247.381 110.385C252.601 105.156 260.636 104.48 266.629 108.822L245.819 129.667C241.391 123.581 242.075 115.699 247.381 110.385Z" fill="#0E2DBE"></path>
<path d="M562.265 99.0265H570.633V131.12L602.672 99.0265H608.4V145.302H600.032V113.296L568.08 145.302H562.265V99.0265Z" fill="#0E2DBE"></path>
<path d="M612.865 99.0265H621.233V131.12L653.272 99.0265H659V145.302H650.632V113.296L618.68 145.302H612.865V99.0265Z" fill="#0E2DBE"></path>
<path d="M457.885 28.4366V74.7116H450.302V40.7882L435.684 55.4143H431.312L416.009 40.1006V74.7116H408.338V28.4366H414.178L433.498 47.776L452.825 28.4366H457.885Z" fill="#0E2DBE"></path>
<path d="M468.178 99.0265V145.302H459.81V106.361H442.207L440.735 132.068C440.287 139.888 433.826 146 426.006 146H423.641V138.404H425.204C429.413 138.404 432.892 135.115 433.134 130.905L434.972 99.0265H468.178Z" fill="#0E2DBE"></path>
<path d="M306.468 35.7707H289.558V74.7116H281.191V35.7707H264.281V28.4366H306.468V35.7707Z" fill="#0E2DBE"></path>
<path d="M49.0151 6.25103C66.6008 5.09808 95.5021 9.74704 116.835 20.012C95.3907 7.88745 67.2686 1.02559 49.7015 0.132991C27.2557 -1.00136 10.746 5.15385 3.75254 17.3342C-0.495463 24.7725 -1.10761 33.9775 1.76768 44.3168C1.63908 39.4773 2.58307 34.6694 4.53165 30.2397C11.1541 15.3258 28.2389 7.62712 49.0151 6.25103Z" fill="url(#paint0_radial_147:543)"></path>
<path d="M10.4864 32.899C15.6619 21.3138 29.5932 14.1171 49.4419 12.8154C64.4862 11.8112 87.1916 14.3961 108.691 22.4667C85.0398 15.5304 64.7459 15.4374 50.017 18.2082C32.0047 21.5926 17.6839 30.2769 13.1205 44.3726C11.472 49.5565 11.2034 55.0823 12.3414 60.4023C7.68528 50.2303 6.99892 40.7465 10.4864 32.899Z" fill="url(#paint1_radial_147:543)"></path>
<path d="M19.3534 46.3995C22.8409 35.6511 34.2122 27.8594 51.2413 24.6609C63.5772 22.3364 85.6335 22.1505 99.9172 27.7851C79.7159 23.1361 64.7088 25.442 52.9294 29.1612C37.848 33.9961 26.3098 43.1639 23.5458 56.181C22.3206 62.1937 22.9681 68.4387 25.4008 74.0702C18.8155 64.3074 16.6822 54.6747 19.3534 46.3995Z" fill="url(#paint2_radial_147:543)"></path>
<path d="M104.388 130.527C123.94 117.157 142.397 94.3956 150.188 78.5519C159.389 59.8258 161.281 41.1555 151.765 27.9152C148.918 24.002 145.236 20.7747 140.988 18.4685C151.301 21.1463 159 26.2416 163.248 33.68C170.278 45.8789 167.347 63.2661 155.141 82.1781C145.569 97.0548 125.591 117.994 104.388 130.527Z" fill="url(#paint3_radial_147:543)"></path>
<path d="M146.423 31.8018C153.843 42.0481 153.119 57.743 144.308 75.6509C137.648 89.2073 124.07 107.636 106.336 122.271C124.144 105.2 134.384 87.6267 139.355 73.4566C145.439 56.1252 145.106 39.3517 135.2 28.343C131.546 24.3216 126.911 21.3224 121.751 19.6401C132.844 20.6443 141.396 24.8655 146.423 31.8018Z" fill="url(#paint4_radial_147:543)"></path>
<path d="M130.34 32.7316C137.871 41.1183 138.928 54.8979 133.178 71.2623C128.948 83.2008 118.134 102.392 106.206 111.969C120.267 96.7758 125.832 82.6058 128.466 70.4999C131.824 54.9351 129.653 40.3373 119.803 31.4485C115.216 27.3807 109.49 24.8288 103.405 24.1403C115.128 23.3035 124.533 26.2602 130.34 32.7316Z" fill="url(#paint5_radial_147:543)"></path>
<path d="M37.1433 130.23C27.3488 115.539 16.9235 88.1287 15.1427 64.4748C15.3653 89.1515 23.5089 116.99 31.5226 132.703C41.7623 152.768 55.3226 164 69.3651 164C77.8426 164 86.1531 159.89 93.6659 152.229C89.5428 154.758 84.9116 156.339 80.1057 156.859C63.9113 158.57 48.7187 147.58 37.1433 130.23Z" fill="url(#paint6_radial_147:543)"></path>
<path d="M42.597 126.585C53.7272 143.173 66.8421 151.652 79.4192 150.332C87.9338 149.439 95.7805 144.084 102.255 134.99C98.219 138.632 93.3104 141.163 88.008 142.336C73.5573 145.404 58.9027 137.333 46.9749 123.387C37.2174 111.969 27.1446 94.3026 21.3199 70.2953C25.067 93.0195 34.2123 114.014 42.597 126.585Z" fill="url(#paint7_radial_147:543)"></path>
<path d="M51.9463 119.11C63.2063 132.275 75.635 138.263 86.6538 135.846C95.1498 133.986 102.403 127.366 107.56 116.766C103.91 121.698 98.8414 125.391 93.0351 127.348C80.4395 131.457 66.7308 126.046 55.0071 115.353C45.8618 107.022 36.4568 95.1023 30.3167 75.2605C32.5798 90.4905 43.7656 109.551 51.9463 119.11Z" fill="url(#paint8_radial_147:543)"></path>
<path fill-rule="evenodd" clip-rule="evenodd" d="M102.017 42.2899C120.477 55.7842 111.629 97.9927 92.5381 106.539C71.9712 115.697 39.6131 86.7771 41.7658 66.1857C44.2081 43.7595 85.2611 30.0532 102.017 42.2899ZM59.7791 94.8792C36.883 82.5675 48.4438 55.4861 66.8264 43.7772C93.9028 26.5306 119.786 69.9237 103.897 91.9082C95.5729 103.364 73.9835 102.517 59.7791 94.8792Z" fill="url(#paint9_radial_147:543)"></path>
<path fill-rule="evenodd" clip-rule="evenodd" d="M29.9305 57.5571C31.9896 47.85 40.8751 39.9096 54.8991 35.4094C63.5056 32.6559 76.2054 29.9024 88.8291 31.3419C99.9348 29.0165 109.26 30.7619 115.429 36.3206C122.775 43.0337 125.186 54.6375 122.07 69.0679C120.126 77.9863 116.079 90.4542 108.467 100.745C104.862 111.438 98.7823 118.599 90.9424 121.155C81.6673 124.223 70.3145 120.486 59.407 110.555C52.7062 104.456 44.0133 94.7388 38.8599 83.0755C31.3079 74.6229 28.2013 65.6698 29.9305 57.5571ZM40.9873 85.5411C39.8491 83.8024 38.8026 82.0164 37.8355 80.1758C35.7412 75.6165 34.8486 70.5599 35.2915 65.4976C36.5158 53.8379 45.3087 44.6144 57.4034 38.8682C68.5328 33.6851 80.7626 31.3263 93.0147 31.9988C97.6105 32.5993 102.028 34.3037 105.875 37.0086C115.336 43.9077 118.861 56.1438 117.822 69.5142C116.757 81.456 112.838 92.9984 106.471 103.074C103.59 107.13 99.6947 110.399 95.1347 112.527C84.4312 117.306 72.0768 114.275 61.0579 106.65C54.2535 101.852 48.3153 95.9692 43.4657 89.2603C42.8056 88.3471 42.1587 87.3476 41.5463 86.4015C41.3565 86.1082 41.1699 85.82 40.9873 85.5411Z" fill="url(#paint10_radial_147:543)"></path>
<defs>
<radialGradient id="paint0_radial_147:543" cx="0" cy="0" r="1" gradientUnits="userSpaceOnUse" gradientTransform="translate(80.4698 72.4177) rotate(90.4867) scale(82.8609 84.3767)">
<stop offset="0.429133" stop-color="#39D07F"></stop>
<stop offset="0.701717" stop-color="#0E2DBE"></stop>
</radialGradient>
<radialGradient id="paint1_radial_147:543" cx="0" cy="0" r="1" gradientUnits="userSpaceOnUse" gradientTransform="translate(80.4698 72.4177) rotate(90.4867) scale(82.8609 84.3767)">
<stop offset="0.429133" stop-color="#39D07F"></stop>
<stop offset="0.701717" stop-color="#0E2DBE"></stop>
</radialGradient>
<radialGradient id="paint2_radial_147:543" cx="0" cy="0" r="1" gradientUnits="userSpaceOnUse" gradientTransform="translate(80.4698 72.4177) rotate(90.4867) scale(82.8609 84.3767)">
<stop offset="0.429133" stop-color="#39D07F"></stop>
<stop offset="0.701717" stop-color="#0E2DBE"></stop>
</radialGradient>
<radialGradient id="paint3_radial_147:543" cx="0" cy="0" r="1" gradientUnits="userSpaceOnUse" gradientTransform="translate(80.4698 72.4177) rotate(90.4867) scale(82.8609 84.3767)">
<stop offset="0.429133" stop-color="#39D07F"></stop>
<stop offset="0.701717" stop-color="#0E2DBE"></stop>
</radialGradient>
<radialGradient id="paint4_radial_147:543" cx="0" cy="0" r="1" gradientUnits="userSpaceOnUse" gradientTransform="translate(80.4698 72.4177) rotate(90.4867) scale(82.8609 84.3767)">
<stop offset="0.429133" stop-color="#39D07F"></stop>
<stop offset="0.701717" stop-color="#0E2DBE"></stop>
</radialGradient>
<radialGradient id="paint5_radial_147:543" cx="0" cy="0" r="1" gradientUnits="userSpaceOnUse" gradientTransform="translate(80.4698 72.4177) rotate(90.4867) scale(82.8609 84.3767)">
<stop offset="0.429133" stop-color="#39D07F"></stop>
<stop offset="0.701717" stop-color="#0E2DBE"></stop>
</radialGradient>
<radialGradient id="paint6_radial_147:543" cx="0" cy="0" r="1" gradientUnits="userSpaceOnUse" gradientTransform="translate(80.4698 72.4177) rotate(90.4867) scale(82.8609 84.3767)">
<stop offset="0.429133" stop-color="#39D07F"></stop>
<stop offset="0.701717" stop-color="#0E2DBE"></stop>
</radialGradient>
<radialGradient id="paint7_radial_147:543" cx="0" cy="0" r="1" gradientUnits="userSpaceOnUse" gradientTransform="translate(80.4698 72.4177) rotate(90.4867) scale(82.8609 84.3767)">
<stop offset="0.429133" stop-color="#39D07F"></stop>
<stop offset="0.701717" stop-color="#0E2DBE"></stop>
</radialGradient>
<radialGradient id="paint8_radial_147:543" cx="0" cy="0" r="1" gradientUnits="userSpaceOnUse" gradientTransform="translate(80.4698 72.4177) rotate(90.4867) scale(82.8609 84.3767)">
<stop offset="0.429133" stop-color="#39D07F"></stop>
<stop offset="0.701717" stop-color="#0E2DBE"></stop>
</radialGradient>
<radialGradient id="paint9_radial_147:543" cx="0" cy="0" r="1" gradientUnits="userSpaceOnUse" gradientTransform="translate(80.4698 72.4177) rotate(90.4867) scale(82.8609 84.3767)">
<stop offset="0.429133" stop-color="#39D07F"></stop>
<stop offset="0.701717" stop-color="#0E2DBE"></stop>
</radialGradient>
<radialGradient id="paint10_radial_147:543" cx="0" cy="0" r="1" gradientUnits="userSpaceOnUse" gradientTransform="translate(80.4698 72.4177) rotate(90.4867) scale(82.8609 84.3767)">
<stop offset="0.429133" stop-color="#39D07F"></stop>
<stop offset="0.701717" stop-color="#0E2DBE"></stop>
</radialGradient>
</defs>
</svg>
