<svg width="378" height="219" viewBox="0 0 378 219" fill="none" xmlns="http://www.w3.org/2000/svg">
<path fill-rule="evenodd" clip-rule="evenodd" d="M214.217 146.198V167.02C212.205 170.115 209.409 171.946 205.63 171.946C202.439 171.946 199.615 170.504 197.969 167.632C196.582 165.274 196.272 162.391 196.272 158.994C196.272 155.909 196.402 153.272 197.428 151.07C198.724 148.299 201.075 146.679 203.679 146.198H214.217ZM275.241 146.199V167.021C277.252 170.116 280.049 171.947 283.828 171.947C287.019 171.947 289.843 170.505 291.489 167.633C292.876 165.275 293.186 162.392 293.186 158.995C293.186 155.91 293.056 153.273 292.03 151.071C290.734 148.3 288.383 146.68 285.778 146.199H275.241ZM275.241 173.945V187.145C275.241 188.67 273.362 189.542 272.036 189.542C270.709 189.542 268.831 188.668 268.831 187.145V143.164C268.831 141.642 270.709 140.768 272.036 140.768C276.23 140.768 280.423 140.775 284.617 140.768C289.556 140.768 293.378 142.545 296.084 146.11C298.531 149.317 299.749 153.441 299.749 158.48C299.749 163.565 298.908 167.834 296.439 171.287C293.62 175.254 289.33 177.243 284.324 177.243C280.961 177.243 277.616 176.146 275.241 173.945ZM236.554 146.199V167.021C238.566 170.116 241.363 171.947 245.141 171.947C248.332 171.947 251.156 170.505 252.802 167.633C254.189 165.275 254.499 162.392 254.499 158.995C254.499 155.91 254.369 153.273 253.343 151.071C252.047 148.3 249.696 146.68 247.091 146.199H236.554ZM236.554 173.945V187.145C236.554 188.67 234.676 189.542 233.349 189.542C232.022 189.542 230.144 188.668 230.144 187.145V143.164C230.144 141.642 232.022 140.768 233.349 140.768C237.543 140.768 241.737 140.775 245.93 140.768C250.869 140.768 254.691 142.545 257.397 146.11C259.844 149.317 261.062 153.441 261.062 158.48C261.062 163.565 260.222 167.834 257.752 171.287C254.933 175.254 250.643 177.243 245.637 177.243C242.275 177.243 238.929 176.146 236.554 173.945ZM26.5644 135.018C26.1636 135.25 25.8406 135.589 25.6701 136.05L15.4343 163.753C12.5391 152.458 9.76159 141.681 6.76879 129.958C6.43546 128.652 4.87427 128.178 3.57454 128.228C1.24148 128.317 -0.44533 129.182 0.182135 131.64C4.04879 146.787 7.55747 160.355 11.4237 175.502C11.7357 176.725 13.1201 177.239 14.3605 177.24C14.7863 177.24 15.2447 177.246 15.6649 177.239C16.7511 177.223 17.8578 176.808 18.233 175.792L29.6394 144.921L41.0458 175.792C41.4211 176.808 42.5278 177.223 43.6139 177.239C44.0342 177.246 44.4926 177.24 44.9183 177.24C46.1587 177.239 47.5433 176.725 47.8551 175.502C51.7215 160.355 55.23 146.787 59.0968 131.64C59.7241 129.182 58.0375 128.317 55.7044 128.228C54.4046 128.178 52.8434 128.652 52.51 129.958C49.5174 141.681 46.7399 152.458 43.8447 163.753L33.6087 136.05C33.4382 135.589 33.1154 135.25 32.7145 135.018C31.4298 134.275 27.849 134.275 26.5644 135.018ZM350.392 177.242C349.066 177.242 347.188 176.371 347.188 174.846C347.188 164.286 347.188 153.725 347.188 143.164C347.188 141.642 349.066 140.768 350.392 140.768C354.788 140.768 359.184 140.768 363.579 140.768C371.517 140.768 378.002 147.252 378.002 155.19V174.846C378.002 176.369 376.123 177.242 374.797 177.242C373.47 177.242 371.592 176.371 371.592 174.846V155.19C371.592 150.79 367.98 146.199 363.58 146.199H353.597C353.597 155.748 353.597 165.297 353.597 174.846C353.597 176.371 351.719 177.242 350.392 177.242ZM309.927 146.722C312.746 142.755 317.035 140.766 322.041 140.766H323.997C329.003 140.766 333.293 142.755 336.112 146.722C338.496 150.056 339.361 154.149 339.419 159.004C339.419 160.228 339.353 161.473 339.2 162.71C330.587 162.71 321.975 162.71 313.362 162.71C313.569 164.442 314.001 166.142 314.877 167.631C316.478 170.425 319.23 171.899 322.279 171.944C325.011 171.944 328.742 171.757 330.448 169.276C332.128 167.192 334.291 166.916 335.875 167.708C337.48 168.511 337.531 169.951 336.785 171.429C333.965 175.301 328.942 177.242 323.997 177.242H322.041C317.035 177.242 312.746 175.253 309.927 171.286C307.543 167.952 306.677 163.859 306.62 159.004C306.62 154.752 307.407 150.245 309.927 146.722ZM332.829 157.278C332.733 154.889 332.371 152.432 331.162 150.377C329.561 147.583 326.808 146.243 323.759 146.197H322.28C319.23 146.243 316.478 147.583 314.877 150.377C313.732 152.322 313.321 154.625 313.212 157.278H332.829ZM148.438 177.242C147.031 177.242 145.039 176.318 145.039 174.701C145.039 159.066 145.039 146.402 145.039 130.768C145.039 129.151 147.031 128.227 148.439 128.227C149.845 128.227 151.838 129.153 151.838 130.768V148.139H175.142V130.767C175.142 129.151 177.134 128.226 178.541 128.226C179.948 128.226 181.94 129.152 181.94 130.767C181.94 146.402 181.94 159.066 181.94 174.7C181.94 176.317 179.948 177.242 178.541 177.242C177.134 177.242 175.142 176.317 175.142 174.7V153.571H151.837V174.701C151.837 176.318 149.845 177.242 148.438 177.242ZM107.913 140.768C109.239 140.768 111.118 141.64 111.118 143.164V162.82C111.118 167.22 114.73 171.811 119.13 171.811H129.112V143.164C129.112 141.642 130.99 140.768 132.317 140.768C133.644 140.768 135.522 141.64 135.522 143.164V175.119C135.522 183.058 129.038 189.542 121.099 189.542C117.647 189.542 114.972 189.542 111.52 189.542C109.995 189.542 109.133 187.762 109.133 186.435C109.133 185.109 109.996 183.51 111.52 183.51C114.972 183.51 117.647 183.51 121.099 183.51C124.765 183.51 127.885 180.624 128.823 177.242H119.13C111.192 177.242 104.708 170.758 104.708 162.82V143.164C104.708 141.641 106.586 140.768 107.913 140.768ZM69.3288 177.242C68.0023 177.242 66.124 176.371 66.124 174.846C66.124 160.105 66.124 145.364 66.124 130.623C66.124 129.098 68.0023 128.227 69.3288 128.227C70.6555 128.227 72.5336 129.1 72.5336 130.623V140.766H82.5156C90.4537 140.766 96.938 147.25 96.938 155.189V174.846C96.938 176.369 95.0597 177.242 93.7332 177.242C92.4065 177.242 90.5284 176.371 90.5284 174.846V155.189C90.5284 150.789 86.916 146.197 82.516 146.197H72.5336C72.5336 155.747 72.5336 165.296 72.5336 174.846C72.5336 176.371 70.6555 177.242 69.3288 177.242ZM214.217 173.944V174.845C214.217 176.369 216.095 177.241 217.422 177.241C218.749 177.241 220.627 176.367 220.627 174.845V143.163C220.627 141.641 218.749 140.767 217.422 140.767C213.228 140.767 209.034 140.774 204.841 140.767C199.902 140.767 196.08 142.544 193.374 146.109C190.927 149.316 189.709 153.44 189.709 158.479C189.709 163.564 190.549 167.833 193.019 171.286C195.838 175.253 200.128 177.242 205.134 177.242C208.496 177.242 211.842 176.145 214.217 173.944Z" fill="#D2D2D2"/>
<path fill-rule="evenodd" clip-rule="evenodd" d="M94.5378 0.185059L94.5753 0.190389L158.932 104.314H112.037C102.413 104.314 94.5378 96.4399 94.5378 86.815V0.185059ZM117.17 0.185059H158.029C167.653 0.185059 175.528 8.06117 175.528 17.6846V26.2173H155.818L149.994 53.6207L117.17 0.185059Z" fill="#3B658C"/>
<path fill-rule="evenodd" clip-rule="evenodd" d="M283.514 0.185059L283.478 0.189067L219.12 104.315H266.015C275.639 104.315 283.514 96.4409 283.514 86.8159V0.185059ZM260.881 0.186259L260.872 0.185059H220.024C210.399 0.185059 202.525 8.06117 202.525 17.6846V26.2173H222.234L228.059 53.6207L260.881 0.186259Z" fill="#F1480D"/>
<path fill-rule="evenodd" clip-rule="evenodd" d="M202.524 104.315H219.12L202.524 26.2173V61.024H175.528V26.2173L158.932 104.315H175.528V80.3072H202.524V104.315ZM202.524 68.7372V72.5939H175.528V68.7372H202.524Z" fill="#9D9E9E"/>
<path fill-rule="evenodd" clip-rule="evenodd" d="M75.6404 209.2L78.006 208.833C78.1376 209.746 78.509 210.446 79.1164 210.935C79.7238 211.42 80.5761 211.665 81.6638 211.665C82.7648 211.665 83.5808 211.451 84.1156 211.018C84.6458 210.59 84.9134 210.083 84.9134 209.502C84.9134 208.981 84.673 208.571 84.1972 208.273C83.8616 208.068 83.0464 207.81 81.75 207.491C80.0001 207.067 78.7903 206.699 78.1104 206.389C77.4349 206.075 76.9228 205.646 76.574 205.095C76.225 204.549 76.0483 203.942 76.0483 203.277C76.0483 202.67 76.1929 202.11 76.4786 201.594C76.7686 201.079 77.1586 200.65 77.6526 200.309C78.0241 200.047 78.5317 199.824 79.1709 199.64C79.8141 199.457 80.4986 199.365 81.2333 199.365C82.3392 199.365 83.309 199.518 84.1436 199.829C84.9812 200.134 85.5976 200.554 85.9966 201.079C86.3905 201.608 86.6672 202.311 86.8167 203.194L84.4781 203.509C84.3741 202.801 84.0657 202.246 83.5581 201.848C83.0505 201.45 82.3346 201.253 81.4053 201.253C80.313 201.253 79.5288 201.428 79.062 201.778C78.5952 202.127 78.3595 202.539 78.3595 203.006C78.3595 203.303 78.4547 203.575 78.6493 203.815C78.8443 204.06 79.1479 204.265 79.5651 204.426C79.8051 204.515 80.5032 204.711 81.6729 205.017C83.3589 205.45 84.537 205.808 85.2078 206.083C85.8788 206.359 86.4041 206.766 86.785 207.29C87.1702 207.818 87.3606 208.474 87.3606 209.261C87.3606 210.026 87.1298 210.747 86.663 211.424C86.1958 212.102 85.5253 212.627 84.6504 212.998C83.7713 213.37 82.7784 213.554 81.6729 213.554C79.8417 213.554 78.4411 213.187 77.4803 212.456C76.5196 211.722 75.9076 210.638 75.6404 209.2ZM290.75 218.497L290.478 216.364C291.004 216.499 291.457 216.569 291.847 216.569C292.382 216.569 292.808 216.482 293.125 216.312C293.447 216.141 293.71 215.901 293.914 215.594C294.063 215.363 294.308 214.791 294.644 213.872C294.688 213.746 294.757 213.558 294.856 213.309L289.499 199.654H292.055L295.001 207.513C295.387 208.504 295.727 209.554 296.03 210.655C296.306 209.619 296.633 208.597 297.013 207.591L300.023 199.654H302.412L297.077 213.501C296.502 214.992 296.053 216.014 295.731 216.578C295.305 217.334 294.815 217.889 294.267 218.244C293.714 218.598 293.057 218.772 292.295 218.772C291.833 218.772 291.317 218.68 290.75 218.497ZM285.739 208.859L288.214 209.173C287.829 210.559 287.109 211.639 286.057 212.404C285.005 213.169 283.664 213.554 282.028 213.554C279.97 213.554 278.338 212.942 277.133 211.717C275.927 210.498 275.325 208.78 275.325 206.573C275.325 204.291 275.932 202.517 277.151 201.258C278.37 199.995 279.952 199.365 281.897 199.365C283.777 199.365 285.314 199.982 286.505 201.218C287.698 202.455 288.296 204.195 288.296 206.437C288.296 206.573 288.292 206.779 288.282 207.049H277.772C277.862 208.54 278.298 209.685 279.087 210.476C279.871 211.267 280.854 211.665 282.028 211.665C282.902 211.665 283.651 211.442 284.267 210.996C284.888 210.55 285.377 209.838 285.739 208.859ZM277.908 205.161H285.767C285.663 204.016 285.359 203.159 284.865 202.587C284.108 201.699 283.12 201.253 281.91 201.253C280.814 201.253 279.894 201.608 279.145 202.316C278.402 203.024 277.989 203.972 277.908 205.161ZM260.989 213.265V199.654H263.137V201.586C264.17 200.104 265.666 199.365 267.62 199.365C268.471 199.365 269.251 199.514 269.963 199.807C270.675 200.1 271.209 200.489 271.563 200.965C271.917 201.441 272.166 202.01 272.306 202.666C272.392 203.093 272.438 203.841 272.438 204.908V213.265H270.045V204.995C270.045 204.056 269.954 203.351 269.768 202.888C269.582 202.425 269.251 202.053 268.78 201.774C268.309 201.498 267.751 201.359 267.117 201.359C266.101 201.359 265.227 201.668 264.488 202.294C263.749 202.915 263.382 204.099 263.382 205.839V213.265H260.989ZM244.967 206.459C244.967 203.946 245.693 202.084 247.147 200.873C248.358 199.868 249.839 199.365 251.585 199.365C253.52 199.365 255.106 199.978 256.339 201.201C257.567 202.421 258.183 204.112 258.183 206.267C258.183 208.015 257.911 209.388 257.367 210.389C256.824 211.39 256.03 212.168 254.988 212.723C253.95 213.278 252.813 213.554 251.585 213.554C249.608 213.554 248.013 212.946 246.794 211.726C245.574 210.507 244.967 208.75 244.967 206.459ZM247.415 206.463C247.415 208.203 247.809 209.506 248.598 210.367C249.391 211.232 250.383 211.665 251.585 211.665C252.772 211.665 253.76 211.232 254.553 210.362C255.342 209.493 255.736 208.168 255.736 206.389C255.736 204.711 255.337 203.439 254.544 202.577C253.751 201.712 252.763 201.279 251.585 201.279C250.383 201.279 249.391 201.708 248.598 202.569C247.809 203.43 247.415 204.728 247.415 206.463ZM223.212 213.265V199.653H225.36V201.577C225.8 200.912 226.389 200.375 227.124 199.973C227.858 199.566 228.692 199.365 229.63 199.365C230.672 199.365 231.529 199.575 232.195 199.99C232.861 200.41 233.333 200.991 233.605 201.743C234.729 200.156 236.183 199.365 237.978 199.365C239.383 199.365 240.466 199.737 241.219 200.484C241.976 201.231 242.357 202.381 242.357 203.933V213.265H239.963V204.698C239.963 203.78 239.882 203.116 239.728 202.709C239.573 202.302 239.292 201.979 238.88 201.73C238.472 201.481 237.992 201.358 237.444 201.358C236.446 201.358 235.621 201.677 234.965 202.311C234.307 202.949 233.981 203.967 233.981 205.366V213.265H231.588V204.431C231.588 203.408 231.393 202.639 231.003 202.127C230.613 201.616 229.974 201.358 229.09 201.358C228.42 201.358 227.799 201.529 227.228 201.869C226.657 202.211 226.244 202.709 225.986 203.369C225.732 204.025 225.605 204.973 225.605 206.21V213.265H223.212ZM206.575 213.265V199.653H208.723V201.739C209.271 200.772 209.779 200.135 210.246 199.829C210.712 199.518 211.225 199.365 211.783 199.365C212.589 199.365 213.787 199.61 214.621 200.095L213.769 201.846C211.965 200.867 209.962 201.655 209.367 203.465C209.099 204.282 208.968 205.178 208.968 206.153V213.265H206.575ZM200.696 213.265V211.241C199.6 212.784 198.113 213.553 196.232 213.553C195.403 213.553 194.628 213.4 193.907 213.094C193.186 212.784 192.651 212.399 192.302 211.936C191.954 211.468 191.709 210.9 191.568 210.227C191.473 209.772 191.423 209.056 191.423 208.076V199.653H193.816V207.185C193.816 208.387 193.866 209.2 193.962 209.615C194.111 210.222 194.428 210.695 194.918 211.04C195.403 211.385 196.001 211.56 196.717 211.56C197.433 211.56 198.104 211.385 198.729 211.031C199.355 210.677 199.799 210.192 200.062 209.584C200.32 208.977 200.451 208.089 200.451 206.931V199.653H202.844V213.265H200.696ZM175.834 206.459C175.834 203.946 176.56 202.084 178.014 200.873C179.225 199.867 180.706 199.365 182.451 199.365C184.387 199.365 185.973 199.977 187.206 201.201C188.434 202.421 189.05 204.112 189.05 206.266C189.05 208.015 188.778 209.388 188.235 210.389C187.691 211.39 186.898 212.167 185.855 212.723C184.817 213.278 183.679 213.553 182.451 213.553C180.475 213.553 178.88 212.946 177.661 211.726C176.442 210.507 175.834 208.75 175.834 206.459ZM178.282 206.463C178.282 208.203 178.676 209.506 179.465 210.366C180.257 211.232 181.25 211.665 182.451 211.665C183.639 211.665 184.627 211.232 185.42 210.362C186.209 209.493 186.603 208.168 186.603 206.389C186.603 204.711 186.204 203.439 185.411 202.577C184.618 201.712 183.63 201.279 182.451 201.279C181.25 201.279 180.257 201.708 179.465 202.569C178.676 203.43 178.282 204.728 178.282 206.463ZM163.404 218.496L163.132 216.364C163.658 216.499 164.111 216.569 164.501 216.569C165.036 216.569 165.462 216.482 165.779 216.312C166.101 216.141 166.364 215.901 166.568 215.594C166.718 215.363 166.963 214.79 167.298 213.872C167.343 213.745 167.411 213.558 167.511 213.308L162.154 199.653H164.71L167.656 207.513C168.041 208.504 168.381 209.553 168.685 210.655C168.961 209.619 169.287 208.597 169.668 207.591L172.677 199.653H175.066L169.732 213.5C169.156 214.991 168.707 216.014 168.386 216.578C167.959 217.334 167.47 217.889 166.922 218.243C166.368 218.597 165.711 218.772 164.95 218.772C164.487 218.772 163.971 218.68 163.404 218.496ZM139.637 214.392L141.948 214.707C142.044 215.398 142.315 215.901 142.76 216.219C143.354 216.643 144.165 216.857 145.193 216.857C146.299 216.857 147.156 216.643 147.759 216.219C148.362 215.795 148.769 215.197 148.982 214.432C149.105 213.964 149.164 212.981 149.155 211.481C148.108 212.67 146.807 213.264 145.248 213.264C143.308 213.264 141.804 212.591 140.743 211.241C139.678 209.894 139.147 208.277 139.147 206.393C139.147 205.095 139.392 203.898 139.877 202.801C140.362 201.703 141.069 200.86 141.994 200.261C142.919 199.662 144.006 199.365 145.257 199.365C146.92 199.365 148.293 200.02 149.372 201.332V199.653H151.575V211.407C151.575 213.527 151.353 215.026 150.904 215.909C150.46 216.792 149.749 217.492 148.783 218.003C147.813 218.514 146.621 218.772 145.207 218.772C143.525 218.772 142.17 218.409 141.137 217.679C140.099 216.954 139.601 215.857 139.637 214.392ZM141.595 206.227C141.595 208.006 141.962 209.305 142.696 210.122C143.435 210.939 144.355 211.35 145.461 211.35C146.562 211.35 147.482 210.944 148.23 210.131C148.973 209.318 149.345 208.041 149.345 206.302C149.345 204.641 148.96 203.386 148.194 202.543C147.428 201.699 146.503 201.279 145.425 201.279C144.359 201.279 143.457 201.694 142.71 202.525C141.966 203.356 141.595 204.588 141.595 206.227ZM124.952 213.264V199.653H127.1V201.585C128.134 200.103 129.63 199.365 131.583 199.365C132.435 199.365 133.215 199.514 133.926 199.806C134.638 200.099 135.173 200.488 135.526 200.965C135.879 201.441 136.129 202.009 136.269 202.665C136.355 203.093 136.401 203.841 136.401 204.907V213.264H134.007V204.995C134.007 204.056 133.917 203.351 133.731 202.888C133.545 202.425 133.215 202.053 132.743 201.774C132.272 201.498 131.715 201.359 131.08 201.359C130.065 201.359 129.19 201.668 128.451 202.294C127.712 202.915 127.345 204.099 127.345 205.839V213.265L124.952 213.264ZM118.911 197.11V194.487H121.303V197.11H118.911ZM118.911 213.264V199.653H121.303V213.264H118.911ZM109.171 213.264L103.845 199.653H106.406L109.424 207.805C109.751 208.684 110.054 209.597 110.331 210.546C110.544 209.829 110.838 208.968 111.224 207.959L114.36 199.653H116.816L111.473 213.264H109.171ZM99.4075 211.56C98.5194 212.29 97.6625 212.801 96.8427 213.103C96.0218 213.405 95.1427 213.553 94.2001 213.553C92.6501 213.553 91.4585 213.19 90.6244 212.46C89.7898 211.735 89.3733 210.804 89.3733 209.672C89.3733 209.007 89.5317 208.4 89.8446 207.849C90.1621 207.298 90.5744 206.861 91.082 206.529C91.5941 206.197 92.1651 205.943 92.8043 205.772C93.2757 205.655 93.9869 205.541 94.9341 205.428C96.865 205.209 98.2926 204.942 99.2034 204.636C99.2127 204.322 99.217 204.12 99.217 204.038C99.217 203.102 98.9906 202.442 98.5371 202.057C97.9251 201.537 97.0143 201.279 95.809 201.279C94.6805 201.279 93.8463 201.472 93.3119 201.852C92.7726 202.232 92.3783 202.906 92.1198 203.876L89.7807 203.561C89.9942 202.595 90.3435 201.813 90.8326 201.218C91.3219 200.624 92.0291 200.169 92.9537 199.846C93.8735 199.527 94.9477 199.365 96.1631 199.365C97.3681 199.365 98.3515 199.501 99.1082 199.776C99.8611 200.051 100.419 200.392 100.772 200.807C101.125 201.222 101.374 201.747 101.52 202.381C101.597 202.774 101.638 203.482 101.638 204.501V207.561C101.638 209.698 101.687 211.049 101.787 211.621C101.882 212.194 102.082 212.74 102.372 213.264H99.8702C99.6302 212.779 99.4759 212.212 99.4075 211.56ZM99.217 206.446C98.347 206.787 97.0415 207.076 95.3014 207.311C94.3131 207.447 93.6154 207.6 93.2073 207.77C92.7998 207.941 92.4869 208.19 92.2646 208.513C92.0427 208.841 91.9298 209.204 91.9298 209.606C91.9298 210.214 92.1698 210.725 92.6546 211.132C93.1396 211.538 93.8463 211.744 94.7754 211.744C95.6957 211.744 96.5158 211.551 97.2366 211.162C97.9525 210.777 98.483 210.249 98.8184 209.58C99.0765 209.06 99.2034 208.295 99.2034 207.285L99.217 206.446Z" fill="#D2D2D2"/>
</svg>
