<?xml version="1.0" encoding="UTF-8"?> <svg xmlns="http://www.w3.org/2000/svg" viewBox="0 0 200 38" fill="none"> <path d="M58.1414 25.1426H52.2528V31.315H48.3262V10.338C51.5961 10.338 54.8688 10.3082 58.1414 10.3082C68.3119 10.3082 68.3415 25.1426 58.1414 25.1426ZM52.2528 21.5167H58.1414C63.1661 21.5167 63.1365 14.0859 58.1414 14.0859H52.2528V21.5167Z" fill="#6B449B"></path> <path d="M88.1786 10.3678V22.3845C88.1786 28.5868 84.4026 31.7652 79.168 31.7652C74.1729 31.7652 69.918 28.7088 69.918 22.3845V10.3678H73.815V22.3845C73.815 26.1596 75.9573 28.1691 79.1976 28.1691C82.4407 28.1691 84.2842 25.9806 84.2842 22.3845V10.3678H88.1786Z" fill="#6B449B"></path> <path d="M107.183 10.3082H111.109V31.315H108.671V31.3448L97.7255 17.1694V31.315H93.7988V10.338H96.98L107.18 23.3446V10.3082H107.183Z" fill="#6B449B"></path> <path d="M134.546 28.679C132.404 30.8079 129.64 31.795 126.636 31.795C118.904 31.795 115.631 26.4308 115.602 20.977C115.572 15.4934 119.111 9.92034 126.636 9.92034C129.462 9.92034 132.137 10.9997 134.28 13.1259L131.664 15.6724C130.296 14.3246 128.453 13.6954 126.639 13.6954C121.611 13.6954 119.442 17.4704 119.472 20.977C119.501 24.4537 121.493 28.0796 126.639 28.0796C128.453 28.0796 130.504 27.3311 131.873 25.9507L134.546 28.679Z" fill="#6B449B"></path> <path d="M152.418 31.3448V22.8645H142.188V31.3448H138.262V10.3678H142.188V19.2088H152.418V10.3678H156.312V31.3448H152.418Z" fill="#6B449B"></path> <path d="M177.011 31.315V27.4179H165.323V22.6856H176.594V19H161.426C161.426 23.1086 161.426 27.2172 161.426 31.3177H177.011V31.315Z" fill="#6B449B"></path> <path d="M177.012 10.338H161.43C161.43 11.6153 161.43 12.8954 161.43 14.1727H177.012V10.338Z" fill="#0255A3"></path> <path d="M200.001 31.315H195.331L189.265 24.3019H185.489V31.315H181.562V10.3082C184.865 10.3082 188.164 10.338 191.467 10.338C196.373 10.3678 198.962 13.6629 198.962 17.2915C198.962 20.1688 197.654 23.0761 193.698 23.8842L200.003 31.0465V31.315H200.001ZM185.489 14.0235V20.7356H191.467C193.964 20.7356 195.035 19.0569 195.035 17.3782C195.035 15.6995 193.935 14.0208 191.467 14.0208H185.489V14.0235Z" fill="#6B449B"></path> <path d="M32.514 0H32.1588V0.564088V1.03326V18.2379C32.1588 18.2379 32.1561 18.2271 32.1507 18.2135C32.1507 18.2217 32.1507 18.2298 32.1507 18.2379C25.705 22.0428 19.2001 25.7446 12.7598 29.5604C12.7732 30.778 12.7786 34.4799 12.7813 38.0027H32.514C35.3722 38.0027 37.711 35.646 37.711 32.7659V5.2368C37.711 2.35669 35.3722 0 32.514 0Z" fill="#0255A3"></path> <path d="M6.38919 25.647C12.8618 22.0347 19.2053 18.1973 25.6617 14.5442C25.6779 13.2832 25.6833 12.0167 25.6886 10.7583C19.2322 14.5009 12.7811 18.2542 6.33806 22.0184C6.32191 19.5207 6.33806 17.0284 6.31653 14.528C13.532 10.2919 20.7824 6.11005 28.0113 1.88481L31.1628 0.0271196L31.2112 0H5.19694C2.33876 0 0 2.35669 0 5.2368V32.7659C0 35.646 2.33876 38.0027 5.19694 38.0027H6.32191C6.31653 35.5484 6.3246 27.2118 6.38919 25.647Z" fill="#6B449B"></path> </svg> 